<svg width="271" height="156" viewBox="0 0 271 156" fill="none" xmlns="http://www.w3.org/2000/svg">
<g filter="url(#filter0_di_6404_1120)">
<rect x="48" y="48" width="175" height="60" rx="30" fill="url(#paint0_linear_6404_1120)" shape-rendering="crispEdges"/>
<rect x="48.5" y="48.5" width="174" height="59" rx="29.5" stroke="url(#paint1_linear_6404_1120)" shape-rendering="crispEdges"/>
<path d="M79.5 86.25L80.75 80L75.75 78.125L84.5 68.75L83.25 75L88.25 76.875L79.5 86.25Z" stroke="white" stroke-width="1.5" stroke-linecap="round" stroke-linejoin="round"/>
<path d="M109.81 84.5L108.604 81.296H103.258L102.052 84.5H100.126L105.076 71.9H106.804L111.754 84.5H109.81ZM103.888 79.658H107.992L105.94 74.24L103.888 79.658ZM113.271 84.5V71.9H115.143V84.5H113.271ZM127.789 84.644C124.549 84.644 121.633 82.52 121.633 78.2C121.633 73.88 124.585 71.756 127.789 71.756C130.651 71.756 132.919 73.484 133.261 75.95H131.299C131.083 74.474 129.607 73.412 127.771 73.412C125.323 73.412 123.559 75.086 123.559 78.2C123.559 81.314 125.323 82.988 127.771 82.988C129.643 82.988 131.137 81.926 131.335 80.45H133.225C132.955 82.916 130.705 84.644 127.789 84.644ZM135.201 84.5V71.63H136.947V77.03C137.433 75.896 138.513 75.284 139.863 75.284C141.915 75.284 143.247 76.76 143.247 78.92V84.5H141.501V79.262C141.501 77.822 140.655 76.85 139.377 76.85C137.955 76.85 136.947 78.002 136.947 79.586V84.5H135.201ZM149.103 75.284C151.443 75.284 152.991 76.634 152.991 78.65V84.5H151.245V83.024C150.813 83.996 149.661 84.644 148.293 84.644C146.439 84.644 145.215 83.528 145.215 81.908C145.215 80.162 146.601 79.082 148.743 79.082H150.633C151.047 79.082 151.245 78.866 151.245 78.542C151.245 77.444 150.453 76.688 149.049 76.688C147.789 76.688 146.871 77.48 146.817 78.398H145.197C145.341 76.616 146.961 75.284 149.103 75.284ZM148.635 83.258C150.291 83.258 151.245 82.196 151.245 80.522V80.306H148.905C147.717 80.306 146.943 80.918 146.943 81.872C146.943 82.7 147.627 83.258 148.635 83.258ZM156.15 72.584H157.896V75.428H160.578V76.94H157.896V81.476C157.896 82.448 158.418 82.988 159.3 82.988H160.578V84.5H159.156C157.32 84.5 156.15 83.384 156.15 81.53V76.94H154.296V75.428H156.15V72.584ZM167.156 84.644C165.95 84.644 164.834 84.05 164.312 83.15V84.5H162.566V71.63H164.312V76.76C164.834 75.878 165.932 75.284 167.174 75.284C169.946 75.284 171.512 77.264 171.512 79.964C171.512 82.664 169.946 84.644 167.156 84.644ZM166.958 83.114C168.632 83.114 169.748 81.854 169.748 79.964C169.748 78.074 168.632 76.814 166.958 76.814C165.266 76.814 164.168 78.074 164.168 79.964C164.168 81.854 165.266 83.114 166.958 83.114ZM177.571 84.644C174.853 84.644 172.891 82.682 172.891 79.964C172.891 77.246 174.853 75.284 177.571 75.284C180.289 75.284 182.233 77.246 182.233 79.964C182.233 82.682 180.289 84.644 177.571 84.644ZM177.571 83.114C179.281 83.114 180.451 81.818 180.451 79.964C180.451 78.11 179.281 76.814 177.571 76.814C175.843 76.814 174.673 78.11 174.673 79.964C174.673 81.818 175.843 83.114 177.571 83.114ZM185.044 72.584H186.79V75.428H189.472V76.94H186.79V81.476C186.79 82.448 187.312 82.988 188.194 82.988H189.472V84.5H188.05C186.214 84.5 185.044 83.384 185.044 81.53V76.94H183.19V75.428H185.044V72.584ZM194.502 84.644C192.378 84.644 190.956 83.456 190.83 81.548H192.468C192.576 82.592 193.332 83.186 194.502 83.186C195.546 83.186 196.212 82.628 196.212 81.962C196.212 79.55 191.064 81.764 191.064 77.894C191.064 76.328 192.396 75.284 194.286 75.284C196.338 75.284 197.742 76.418 197.832 78.128H196.194C196.068 77.084 195.06 76.67 194.286 76.67C193.35 76.67 192.72 77.138 192.72 77.84C192.72 80.09 197.904 77.786 197.904 81.926C197.904 83.582 196.554 84.644 194.502 84.644Z" fill="white"/>
</g>
<rect x="36.5" y="36.5" width="198" height="83" rx="41.5" stroke="url(#paint2_linear_6404_1120)"/>
<rect x="20.5" y="20.5" width="230" height="115" rx="57.5" stroke="url(#paint3_linear_6404_1120)" stroke-opacity="0.4"/>
<rect x="0.5" y="0.5" width="270" height="155" rx="77.5" stroke="url(#paint4_linear_6404_1120)" stroke-opacity="0.2"/>
<defs>
<filter id="filter0_di_6404_1120" x="24" y="28" width="223" height="108" filterUnits="userSpaceOnUse" color-interpolation-filters="sRGB">
<feFlood flood-opacity="0" result="BackgroundImageFix"/>
<feColorMatrix in="SourceAlpha" type="matrix" values="0 0 0 0 0 0 0 0 0 0 0 0 0 0 0 0 0 0 127 0" result="hardAlpha"/>
<feOffset dy="4"/>
<feGaussianBlur stdDeviation="12"/>
<feComposite in2="hardAlpha" operator="out"/>
<feColorMatrix type="matrix" values="0 0 0 0 0.0827989 0 0 0 0 0.366658 0 0 0 0 0.883188 0 0 0 1 0"/>
<feBlend mode="normal" in2="BackgroundImageFix" result="effect1_dropShadow_6404_1120"/>
<feBlend mode="normal" in="SourceGraphic" in2="effect1_dropShadow_6404_1120" result="shape"/>
<feColorMatrix in="SourceAlpha" type="matrix" values="0 0 0 0 0 0 0 0 0 0 0 0 0 0 0 0 0 0 127 0" result="hardAlpha"/>
<feOffset dy="2"/>
<feGaussianBlur stdDeviation="0.5"/>
<feComposite in2="hardAlpha" operator="arithmetic" k2="-1" k3="1"/>
<feColorMatrix type="matrix" values="0 0 0 0 1 0 0 0 0 1 0 0 0 0 1 0 0 0 0.24 0"/>
<feBlend mode="normal" in2="shape" result="effect2_innerShadow_6404_1120"/>
</filter>
<linearGradient id="paint0_linear_6404_1120" x1="135.994" y1="21" x2="135.489" y2="108" gradientUnits="userSpaceOnUse">
<stop stop-color="#93D2FF"/>
<stop offset="1" stop-color="#0542FC"/>
</linearGradient>
<linearGradient id="paint1_linear_6404_1120" x1="135.5" y1="48" x2="135.5" y2="108" gradientUnits="userSpaceOnUse">
<stop stop-color="#0542FC"/>
<stop offset="1" stop-color="#3567FD"/>
</linearGradient>
<linearGradient id="paint2_linear_6404_1120" x1="138.945" y1="79.6605" x2="84.8153" y2="133.708" gradientUnits="userSpaceOnUse">
<stop stop-color="#C2D1FF" stop-opacity="0.12"/>
<stop offset="1" stop-color="#C2D1FF" stop-opacity="0.24"/>
</linearGradient>
<linearGradient id="paint3_linear_6404_1120" x1="139.499" y1="80.2931" x2="222.045" y2="23.5223" gradientUnits="userSpaceOnUse">
<stop stop-color="#C2D1FF" stop-opacity="0.12"/>
<stop offset="1" stop-color="#C2D1FF" stop-opacity="0.4"/>
</linearGradient>
<linearGradient id="paint4_linear_6404_1120" x1="140.192" y1="81.0838" x2="245.081" y2="18.1545" gradientUnits="userSpaceOnUse">
<stop stop-color="#C2D1FF" stop-opacity="0.12"/>
<stop offset="1" stop-color="#C2D1FF" stop-opacity="0.4"/>
</linearGradient>
</defs>
</svg>
