<svg width="480" height="480" viewBox="0 0 480 480" fill="none" xmlns="http://www.w3.org/2000/svg">
<rect width="480" height="480" rx="20" fill="url(#paint0_linear_6404_943)"/>
<path d="M33.096 20L36.24 11.6H37.884L41.016 20H39.54L38.748 17.924H35.304L34.524 20H33.096ZM35.688 16.748H38.364L37.02 13.088L35.688 16.748ZM42.3574 11.6H43.7374V20H42.3574V11.6ZM49.4737 13.568C49.8097 12.92 50.2777 12.428 50.8897 12.068C51.5017 11.708 52.2217 11.528 53.0377 11.528C53.6617 11.528 54.2377 11.648 54.7417 11.888C55.2457 12.128 55.6657 12.476 55.9897 12.92C56.3017 13.364 56.5057 13.88 56.6017 14.456H55.2217C55.0777 13.928 54.8137 13.508 54.4297 13.196C54.0337 12.896 53.5537 12.74 52.9777 12.74C52.4497 12.74 51.9937 12.872 51.6097 13.136C51.2137 13.4 50.9137 13.76 50.7097 14.216C50.4937 14.672 50.3977 15.2 50.3977 15.8C50.3977 16.4 50.4937 16.928 50.7097 17.384C50.9137 17.852 51.2137 18.212 51.6097 18.476C51.9937 18.74 52.4497 18.86 52.9777 18.86C53.5537 18.86 54.0337 18.716 54.4177 18.404C54.8017 18.104 55.0657 17.684 55.2097 17.144H56.5897C56.4937 17.744 56.2897 18.26 55.9777 18.692C55.6657 19.136 55.2577 19.472 54.7537 19.712C54.2497 19.952 53.6737 20.072 53.0377 20.072C52.2217 20.072 51.5017 19.904 50.8897 19.544C50.2777 19.196 49.8097 18.704 49.4737 18.056C49.1377 17.408 48.9817 16.664 48.9817 15.8C48.9817 14.96 49.1377 14.216 49.4737 13.568ZM58.2583 11.588H59.6383V15.128H63.5383V11.588H64.9183V20H63.5383V16.352H59.6383V20H58.2583V11.588ZM66.2577 20L69.4017 11.6H71.0457L74.1777 20H72.7017L71.9097 17.924H68.4657L67.6857 20H66.2577ZM68.8497 16.748H71.5257L70.1817 13.088L68.8497 16.748ZM73.8438 11.6H80.4078V12.824H77.8158V20H76.4358V12.824H73.8438V11.6ZM85.0128 11.6C85.9248 11.6 86.6448 11.792 87.1488 12.176C87.6528 12.56 87.9168 13.1 87.9168 13.784C87.9168 14.288 87.7728 14.708 87.5088 15.032C87.2448 15.356 86.8608 15.572 86.3568 15.68C87.6048 15.896 88.2408 16.556 88.2408 17.66C88.2408 18.392 87.9648 18.968 87.4248 19.376C86.8848 19.796 86.1168 20 85.1208 20H81.9288V11.6H85.0128ZM83.3088 15.164H85.0488C85.5168 15.164 85.8768 15.056 86.1408 14.84C86.4048 14.624 86.5368 14.336 86.5368 13.952C86.5368 13.58 86.4048 13.292 86.1408 13.076C85.8768 12.86 85.5168 12.752 85.0488 12.752H83.3088V15.164ZM83.3088 18.836H85.1328C85.6728 18.836 86.0928 18.728 86.3808 18.512C86.6688 18.296 86.8248 17.984 86.8248 17.588C86.8248 17.18 86.6688 16.868 86.3808 16.64C86.0808 16.424 85.6608 16.304 85.1328 16.304H83.3088V18.836ZM97.3225 17.996C96.9745 18.644 96.4945 19.16 95.8705 19.52C95.2465 19.892 94.5505 20.072 93.7585 20.072C92.9665 20.072 92.2585 19.892 91.6345 19.52C91.0105 19.16 90.5305 18.644 90.1945 17.996C89.8465 17.348 89.6785 16.616 89.6785 15.8C89.6785 14.984 89.8465 14.252 90.1945 13.604C90.5305 12.956 91.0105 12.452 91.6345 12.08C92.2585 11.72 92.9665 11.528 93.7585 11.528C94.5505 11.528 95.2465 11.72 95.8705 12.08C96.4945 12.452 96.9745 12.956 97.3225 13.604C97.6585 14.252 97.8385 14.984 97.8385 15.8C97.8385 16.616 97.6585 17.348 97.3225 17.996ZM91.4305 17.384C91.6465 17.852 91.9585 18.212 92.3665 18.476C92.7745 18.74 93.2305 18.86 93.7585 18.86C94.2745 18.86 94.7305 18.74 95.1385 18.476C95.5465 18.212 95.8585 17.852 96.0865 17.384C96.3025 16.916 96.4225 16.388 96.4225 15.8C96.4225 15.224 96.3025 14.696 96.0865 14.228C95.8585 13.76 95.5465 13.4 95.1385 13.136C94.7305 12.872 94.2745 12.74 93.7585 12.74C93.2305 12.74 92.7745 12.872 92.3665 13.136C91.9585 13.4 91.6465 13.76 91.4305 14.228C91.2025 14.696 91.0945 15.224 91.0945 15.8C91.0945 16.388 91.2025 16.916 91.4305 17.384ZM98.44 11.6H105.004V12.824H102.412V20H101.032V12.824H98.44V11.6ZM107.147 17.264C107.183 17.768 107.387 18.164 107.747 18.464C108.107 18.764 108.587 18.908 109.175 18.908C109.679 18.908 110.099 18.8 110.411 18.584C110.723 18.368 110.891 18.056 110.891 17.66C110.891 17.384 110.795 17.168 110.627 17C110.459 16.832 110.219 16.712 109.931 16.616C109.631 16.532 109.211 16.436 108.683 16.34C108.131 16.244 107.663 16.124 107.279 15.968C106.895 15.812 106.571 15.572 106.331 15.248C106.091 14.936 105.971 14.516 105.971 13.988C105.971 13.508 106.091 13.088 106.343 12.704C106.595 12.332 106.943 12.044 107.399 11.828C107.855 11.624 108.371 11.516 108.959 11.516C109.559 11.516 110.087 11.636 110.567 11.852C111.035 12.08 111.407 12.392 111.683 12.776C111.947 13.172 112.103 13.616 112.127 14.12H110.771C110.723 13.688 110.531 13.34 110.207 13.076C109.871 12.812 109.463 12.68 108.959 12.68C108.467 12.68 108.071 12.788 107.783 13.004C107.495 13.22 107.351 13.508 107.351 13.892C107.351 14.168 107.435 14.384 107.603 14.54C107.771 14.708 108.011 14.828 108.299 14.9C108.587 14.984 108.995 15.068 109.535 15.164C110.075 15.26 110.543 15.392 110.939 15.548C111.323 15.716 111.647 15.944 111.899 16.256C112.139 16.568 112.271 16.988 112.271 17.492C112.271 17.996 112.139 18.44 111.875 18.824C111.611 19.22 111.239 19.532 110.771 19.748C110.291 19.964 109.763 20.072 109.163 20.072C108.491 20.072 107.915 19.952 107.411 19.712C106.907 19.472 106.511 19.148 106.223 18.716C105.935 18.284 105.791 17.792 105.791 17.24L107.147 17.264Z" fill="white"/>
<g clip-path="url(#clip0_6404_943)">
<rect x="1" y="30" width="478" height="449" rx="19" fill="white"/>
<rect x="33" y="54" width="40" height="40" rx="10" fill="url(#paint1_linear_6404_943)"/>
<path d="M65 75.7542L62.6738 81.9936H56.1499L60.5585 70.1677H58.3443L53.9358 81.9936H47.4119L53 67H61.7381L65 75.7542Z" fill="white"/>
<path d="M53.3295 81.9936C53.29 82 53.2438 82 53.2043 82H48.888C48.8419 82 48.8023 82 48.7628 81.9936H53.3295Z" fill="white"/>
<path d="M50.7924 67L45.995 79.8626H42.5288L41 75.7542L44.2619 67H50.7924Z" fill="white"/>
<g filter="url(#filter0_d_6404_943)">
<rect x="85" y="54" width="270" height="40" rx="10" fill="#E3E8EF" shape-rendering="crispEdges"/>
<path d="M100.276 79L97.28 69.2H98.778L101.046 76.83L103.384 69.2H104.644L106.982 76.83L109.264 69.2H110.748L107.766 79H106.31L104.014 71.454L101.718 79H100.276ZM115.951 76.704H117.309C117.057 78.16 115.783 79.112 114.047 79.112C111.863 79.112 110.505 77.39 110.505 75.43C110.505 73.456 111.737 71.832 113.907 71.832C116.091 71.832 117.253 73.386 117.253 75.178C117.253 75.36 117.239 75.584 117.225 75.71H111.835C111.947 77.04 112.815 77.95 114.047 77.95C115.083 77.95 115.755 77.502 115.951 76.704ZM113.907 72.924C112.801 72.924 112.087 73.54 111.877 74.716H115.881C115.797 73.638 115.069 72.924 113.907 72.924ZM118.706 79V68.99H120.064V79H118.706ZM124.956 79.112C122.73 79.112 121.456 77.418 121.456 75.472C121.456 73.526 122.73 71.832 124.956 71.832C126.608 71.832 128.036 72.812 128.232 74.408H126.874C126.748 73.61 125.936 73.022 124.984 73.022C123.57 73.022 122.87 74.114 122.87 75.472C122.87 76.83 123.584 77.922 124.984 77.922C125.95 77.922 126.664 77.418 126.888 76.62H128.232C128.008 78.104 126.748 79.112 124.956 79.112ZM132.752 79.112C130.638 79.112 129.112 77.586 129.112 75.472C129.112 73.358 130.638 71.832 132.752 71.832C134.866 71.832 136.378 73.358 136.378 75.472C136.378 77.586 134.866 79.112 132.752 79.112ZM132.752 77.922C134.082 77.922 134.992 76.914 134.992 75.472C134.992 74.03 134.082 73.022 132.752 73.022C131.408 73.022 130.498 74.03 130.498 75.472C130.498 76.914 131.408 77.922 132.752 77.922ZM137.708 79V71.944H139.066V73.204C139.36 72.406 140.116 71.832 141.152 71.832C142.3 71.832 143.154 72.35 143.434 73.274C143.714 72.476 144.638 71.832 145.73 71.832C147.256 71.832 148.208 72.882 148.208 74.52V79H146.85V74.898C146.85 73.778 146.29 73.022 145.352 73.022C144.274 73.022 143.63 73.778 143.63 74.898V79H142.272V74.898C142.272 73.778 141.712 73.022 140.788 73.022C139.71 73.022 139.066 73.778 139.066 74.898V79H137.708ZM154.984 76.704H156.342C156.09 78.16 154.816 79.112 153.08 79.112C150.896 79.112 149.538 77.39 149.538 75.43C149.538 73.456 150.77 71.832 152.94 71.832C155.124 71.832 156.286 73.386 156.286 75.178C156.286 75.36 156.272 75.584 156.258 75.71H150.868C150.98 77.04 151.848 77.95 153.08 77.95C154.116 77.95 154.788 77.502 154.984 76.704ZM152.94 72.924C151.834 72.924 151.12 73.54 150.91 74.716H154.914C154.83 73.638 154.102 72.924 152.94 72.924ZM158.131 76.634L157.767 69.2H159.503L159.153 76.634H158.131ZM157.893 77.488H159.391V79H157.893V77.488ZM170.999 69.2H172.455V79H170.999V74.604H166.141V79H164.685V69.2H166.141V73.316H170.999V69.2ZM177.555 79.112C175.441 79.112 173.915 77.586 173.915 75.472C173.915 73.358 175.441 71.832 177.555 71.832C179.669 71.832 181.181 73.358 181.181 75.472C181.181 77.586 179.669 79.112 177.555 79.112ZM177.555 77.922C178.885 77.922 179.795 76.914 179.795 75.472C179.795 74.03 178.885 73.022 177.555 73.022C176.211 73.022 175.301 74.03 175.301 75.472C175.301 76.914 176.211 77.922 177.555 77.922ZM183.846 79L181.662 71.944H183.02L184.476 77.194L186.072 71.944H187.36L188.942 77.194L190.384 71.944H191.756L189.572 79H188.312L186.702 73.736L185.106 79H183.846ZM199.167 79.112C196.941 79.112 195.667 77.418 195.667 75.472C195.667 73.526 196.941 71.832 199.167 71.832C200.819 71.832 202.247 72.812 202.443 74.408H201.085C200.959 73.61 200.147 73.022 199.195 73.022C197.781 73.022 197.081 74.114 197.081 75.472C197.081 76.83 197.795 77.922 199.195 77.922C200.161 77.922 200.875 77.418 201.099 76.62H202.443C202.219 78.104 200.959 79.112 199.167 79.112ZM206.447 71.832C208.267 71.832 209.471 72.882 209.471 74.45V79H208.113V77.852C207.777 78.608 206.881 79.112 205.817 79.112C204.375 79.112 203.423 78.244 203.423 76.984C203.423 75.626 204.501 74.786 206.167 74.786H207.637C207.959 74.786 208.113 74.618 208.113 74.366C208.113 73.512 207.497 72.924 206.405 72.924C205.425 72.924 204.711 73.54 204.669 74.254H203.409C203.521 72.868 204.781 71.832 206.447 71.832ZM206.083 78.034C207.371 78.034 208.113 77.208 208.113 75.906V75.738H206.293C205.369 75.738 204.767 76.214 204.767 76.956C204.767 77.6 205.299 78.034 206.083 78.034ZM211.044 79V71.944H212.402V73.19C212.78 72.308 213.62 71.832 214.67 71.832C216.266 71.832 217.302 72.98 217.302 74.66V79H215.944V74.926C215.944 73.806 215.286 73.05 214.292 73.05C213.186 73.05 212.402 73.946 212.402 75.178V79H211.044ZM223.808 79L221.624 71.944H222.982L224.438 77.194L226.034 71.944H227.322L228.904 77.194L230.346 71.944H231.718L229.534 79H228.274L226.664 73.736L225.068 79H223.808ZM237.644 76.704H239.002C238.75 78.16 237.476 79.112 235.74 79.112C233.556 79.112 232.198 77.39 232.198 75.43C232.198 73.456 233.43 71.832 235.6 71.832C237.784 71.832 238.946 73.386 238.946 75.178C238.946 75.36 238.932 75.584 238.918 75.71H233.528C233.64 77.04 234.508 77.95 235.74 77.95C236.776 77.95 237.448 77.502 237.644 76.704ZM235.6 72.924C234.494 72.924 233.78 73.54 233.57 74.716H237.574C237.49 73.638 236.762 72.924 235.6 72.924ZM243.626 79V68.99H244.984V73.19C245.362 72.308 246.202 71.832 247.252 71.832C248.848 71.832 249.883 72.98 249.883 74.66V79H248.526V74.926C248.526 73.806 247.868 73.05 246.874 73.05C245.768 73.05 244.984 73.946 244.984 75.178V79H243.626ZM256.662 76.704H258.02C257.768 78.16 256.494 79.112 254.758 79.112C252.574 79.112 251.216 77.39 251.216 75.43C251.216 73.456 252.448 71.832 254.618 71.832C256.802 71.832 257.964 73.386 257.964 75.178C257.964 75.36 257.95 75.584 257.936 75.71H252.546C252.658 77.04 253.526 77.95 254.758 77.95C255.794 77.95 256.466 77.502 256.662 76.704ZM254.618 72.924C253.512 72.924 252.798 73.54 252.588 74.716H256.592C256.508 73.638 255.78 72.924 254.618 72.924ZM259.417 79V68.99H260.775V79H259.417ZM262.643 81.856V71.944H264.001V72.994C264.421 72.294 265.275 71.832 266.255 71.832C268.383 71.832 269.601 73.372 269.601 75.472C269.601 77.572 268.327 79.112 266.185 79.112C265.247 79.112 264.407 78.678 264.001 78.006V81.856H262.643ZM266.059 77.922C267.361 77.922 268.229 76.942 268.229 75.472C268.229 74.002 267.361 73.022 266.059 73.022C264.743 73.022 263.889 74.002 263.889 75.472C263.889 76.942 264.743 77.922 266.059 77.922ZM279.949 71.944L277.471 78.748L276.407 81.856H275.105L276.057 79.07L273.439 71.944H274.839L276.687 77.236L278.549 71.944H279.949ZM283.963 79.112C281.849 79.112 280.323 77.586 280.323 75.472C280.323 73.358 281.849 71.832 283.963 71.832C286.077 71.832 287.589 73.358 287.589 75.472C287.589 77.586 286.077 79.112 283.963 79.112ZM283.963 77.922C285.293 77.922 286.203 76.914 286.203 75.472C286.203 74.03 285.293 73.022 283.963 73.022C282.619 73.022 281.709 74.03 281.709 75.472C281.709 76.914 282.619 77.922 283.963 77.922ZM295.177 71.944V79H293.819V77.754C293.441 78.636 292.601 79.112 291.551 79.112C289.955 79.112 288.919 77.964 288.919 76.284V71.944H290.277V76.018C290.277 77.138 290.935 77.894 291.929 77.894C293.035 77.894 293.819 76.998 293.819 75.766V71.944H295.177ZM300.955 69.732H302.313V71.944H304.399V73.12H302.313V76.648C302.313 77.404 302.719 77.824 303.405 77.824H304.399V79H303.293C301.865 79 300.955 78.132 300.955 76.69V73.12H299.513V71.944H300.955V69.732ZM308.627 79.112C306.513 79.112 304.987 77.586 304.987 75.472C304.987 73.358 306.513 71.832 308.627 71.832C310.741 71.832 312.253 73.358 312.253 75.472C312.253 77.586 310.741 79.112 308.627 79.112ZM308.627 77.922C309.957 77.922 310.867 76.914 310.867 75.472C310.867 74.03 309.957 73.022 308.627 73.022C307.283 73.022 306.373 74.03 306.373 75.472C306.373 76.914 307.283 77.922 308.627 77.922ZM316.565 79.112C314.395 79.112 313.177 77.572 313.177 75.472C313.177 73.372 314.395 71.832 316.551 71.832C317.517 71.832 318.371 72.294 318.791 72.98V68.99H320.149V79H318.791V77.95C318.371 78.65 317.503 79.112 316.565 79.112ZM316.719 77.922C318.035 77.922 318.889 76.942 318.889 75.472C318.889 74.002 318.035 73.022 316.719 73.022C315.417 73.022 314.563 74.002 314.563 75.472C314.563 76.942 315.417 77.922 316.719 77.922ZM324.708 71.832C326.528 71.832 327.732 72.882 327.732 74.45V79H326.374V77.852C326.038 78.608 325.142 79.112 324.078 79.112C322.636 79.112 321.684 78.244 321.684 76.984C321.684 75.626 322.762 74.786 324.428 74.786H325.898C326.22 74.786 326.374 74.618 326.374 74.366C326.374 73.512 325.758 72.924 324.666 72.924C323.686 72.924 322.972 73.54 322.93 74.254H321.67C321.782 72.868 323.042 71.832 324.708 71.832ZM324.344 78.034C325.632 78.034 326.374 77.208 326.374 75.906V75.738H324.554C323.63 75.738 323.028 76.214 323.028 76.956C323.028 77.6 323.56 78.034 324.344 78.034ZM334.855 71.944L332.377 78.748L331.313 81.856H330.011L330.963 79.07L328.345 71.944H329.745L331.593 77.236L333.455 71.944H334.855ZM338.388 76.634C337.058 76.634 336.176 76.032 336.176 74.786C336.176 72.14 340.264 73.4 340.264 71.566C340.264 70.74 339.662 70.264 338.654 70.264C337.646 70.264 336.89 70.866 336.848 71.902H335.518C335.574 70.18 336.862 69.088 338.654 69.088C340.474 69.088 341.678 70.054 341.678 71.58C341.678 74.352 337.52 73.386 337.52 74.744C337.52 75.318 337.898 75.514 338.472 75.514H340.376V76.634H338.388ZM337.94 77.488H339.438V79H337.94V77.488Z" fill="#3F3F46"/>
</g>
<rect x="85.5" y="102.5" width="109" height="31" rx="9.5" stroke="#E3E8EF"/>
<path d="M97.808 122L95.24 113.6H96.524L98.468 120.14L100.472 113.6H101.552L103.556 120.14L105.512 113.6H106.784L104.228 122H102.98L101.012 115.532L99.044 122H97.808ZM107.827 122V113.42H108.991V117.02C109.315 116.264 110.035 115.856 110.935 115.856C112.303 115.856 113.191 116.84 113.191 118.28V122H112.027V118.508C112.027 117.548 111.463 116.9 110.611 116.9C109.663 116.9 108.991 117.668 108.991 118.724V122H107.827ZM116.975 115.856C118.535 115.856 119.567 116.756 119.567 118.1V122H118.403V121.016C118.115 121.664 117.347 122.096 116.435 122.096C115.199 122.096 114.383 121.352 114.383 120.272C114.383 119.108 115.307 118.388 116.735 118.388H117.995C118.271 118.388 118.403 118.244 118.403 118.028C118.403 117.296 117.875 116.792 116.939 116.792C116.099 116.792 115.487 117.32 115.451 117.932H114.371C114.467 116.744 115.547 115.856 116.975 115.856ZM116.663 121.172C117.767 121.172 118.403 120.464 118.403 119.348V119.204H116.843C116.051 119.204 115.535 119.612 115.535 120.248C115.535 120.8 115.991 121.172 116.663 121.172ZM121.553 114.056H122.717V115.952H124.505V116.96H122.717V119.984C122.717 120.632 123.065 120.992 123.653 120.992H124.505V122H123.557C122.333 122 121.553 121.256 121.553 120.02V116.96H120.317V115.952H121.553V114.056ZM128.192 113.42H129.488V114.884H128.192V113.42ZM128.264 122V115.952H129.428V122H128.264ZM133.024 122.096C131.608 122.096 130.66 121.304 130.576 120.032H131.668C131.74 120.728 132.244 121.124 133.024 121.124C133.72 121.124 134.164 120.752 134.164 120.308C134.164 118.7 130.732 120.176 130.732 117.596C130.732 116.552 131.62 115.856 132.88 115.856C134.248 115.856 135.184 116.612 135.244 117.752H134.152C134.068 117.056 133.396 116.78 132.88 116.78C132.256 116.78 131.836 117.092 131.836 117.56C131.836 119.06 135.292 117.524 135.292 120.284C135.292 121.388 134.392 122.096 133.024 122.096ZM139.375 122V113.6H140.911L143.587 120.296L146.263 113.6H147.799V122H146.599V115.748L144.091 122H143.083L140.563 115.748V122H139.375ZM152.164 122.096C150.352 122.096 149.044 120.788 149.044 118.976C149.044 117.164 150.352 115.856 152.164 115.856C153.976 115.856 155.272 117.164 155.272 118.976C155.272 120.788 153.976 122.096 152.164 122.096ZM152.164 121.076C153.304 121.076 154.084 120.212 154.084 118.976C154.084 117.74 153.304 116.876 152.164 116.876C151.012 116.876 150.232 117.74 150.232 118.976C150.232 120.212 151.012 121.076 152.164 121.076ZM156.412 122V115.952H157.576V117.02C157.9 116.264 158.62 115.856 159.52 115.856C160.888 115.856 161.776 116.84 161.776 118.28V122H160.612V118.508C160.612 117.548 160.048 116.9 159.196 116.9C158.248 116.9 157.576 117.668 157.576 118.724V122H156.412ZM163.195 113.42H164.491V114.884H163.195V113.42ZM163.267 122V115.952H164.431V122H163.267ZM167.512 122L165.292 115.952H166.492L168.076 120.536L169.672 115.952H170.872L168.664 122H167.512ZM175.861 120.032H177.025C176.809 121.28 175.717 122.096 174.229 122.096C172.357 122.096 171.193 120.62 171.193 118.94C171.193 117.248 172.249 115.856 174.109 115.856C175.981 115.856 176.977 117.188 176.977 118.724C176.977 118.88 176.965 119.072 176.953 119.18H172.333C172.429 120.32 173.173 121.1 174.229 121.1C175.117 121.1 175.693 120.716 175.861 120.032ZM174.109 116.792C173.161 116.792 172.549 117.32 172.369 118.328H175.801C175.729 117.404 175.105 116.792 174.109 116.792ZM180.934 122.096C179.122 122.096 177.814 120.788 177.814 118.976C177.814 117.164 179.122 115.856 180.934 115.856C182.746 115.856 184.042 117.164 184.042 118.976C184.042 120.788 182.746 122.096 180.934 122.096ZM180.934 121.076C182.074 121.076 182.854 120.212 182.854 118.976C182.854 117.74 182.074 116.876 180.934 116.876C179.782 116.876 179.002 117.74 179.002 118.976C179.002 120.212 179.782 121.076 180.934 121.076Z" fill="#0542FC"/>
<rect x="203.5" y="102.5" width="215" height="31" rx="9.5" stroke="#E3E8EF"/>
<path d="M219.54 122L218.736 119.864H215.172L214.368 122H213.084L216.384 113.6H217.536L220.836 122H219.54ZM215.592 118.772H218.328L216.96 115.16L215.592 118.772ZM221.727 122V113.6H222.975V122H221.727ZM227.446 122V113.6H232.834V114.704H228.694V117.116H232.042V118.22H228.694V120.896H232.966V122H227.446ZM234.193 122V115.952H235.357V117.02C235.681 116.264 236.401 115.856 237.301 115.856C238.669 115.856 239.557 116.84 239.557 118.28V122H238.393V118.508C238.393 117.548 237.829 116.9 236.977 116.9C236.029 116.9 235.357 117.668 235.357 118.724V122H234.193ZM241.109 122V113.42H242.273V117.02C242.597 116.264 243.317 115.856 244.217 115.856C245.585 115.856 246.473 116.84 246.473 118.28V122H245.309V118.508C245.309 117.548 244.745 116.9 243.893 116.9C242.945 116.9 242.273 117.668 242.273 118.724V122H241.109ZM250.257 115.856C251.817 115.856 252.849 116.756 252.849 118.1V122H251.685V121.016C251.397 121.664 250.629 122.096 249.717 122.096C248.481 122.096 247.665 121.352 247.665 120.272C247.665 119.108 248.589 118.388 250.017 118.388H251.277C251.553 118.388 251.685 118.244 251.685 118.028C251.685 117.296 251.157 116.792 250.221 116.792C249.381 116.792 248.769 117.32 248.733 117.932H247.653C247.749 116.744 248.829 115.856 250.257 115.856ZM249.945 121.172C251.049 121.172 251.685 120.464 251.685 119.348V119.204H250.125C249.333 119.204 248.817 119.612 248.817 120.248C248.817 120.8 249.273 121.172 249.945 121.172ZM254.197 122V115.952H255.361V117.02C255.685 116.264 256.405 115.856 257.305 115.856C258.673 115.856 259.561 116.84 259.561 118.28V122H258.397V118.508C258.397 117.548 257.833 116.9 256.981 116.9C256.033 116.9 255.361 117.668 255.361 118.724V122H254.197ZM263.705 122.096C261.797 122.096 260.705 120.644 260.705 118.976C260.705 117.308 261.797 115.856 263.705 115.856C265.121 115.856 266.345 116.696 266.513 118.064H265.349C265.241 117.38 264.545 116.876 263.729 116.876C262.517 116.876 261.917 117.812 261.917 118.976C261.917 120.14 262.529 121.076 263.729 121.076C264.557 121.076 265.169 120.644 265.361 119.96H266.513C266.321 121.232 265.241 122.096 263.705 122.096ZM271.935 120.032H273.099C272.883 121.28 271.791 122.096 270.303 122.096C268.431 122.096 267.267 120.62 267.267 118.94C267.267 117.248 268.323 115.856 270.183 115.856C272.055 115.856 273.051 117.188 273.051 118.724C273.051 118.88 273.039 119.072 273.027 119.18H268.407C268.503 120.32 269.247 121.1 270.303 121.1C271.191 121.1 271.767 120.716 271.935 120.032ZM270.183 116.792C269.235 116.792 268.623 117.32 268.443 118.328H271.875C271.803 117.404 271.179 116.792 270.183 116.792ZM281.97 115.952L279.846 121.784L278.934 124.448H277.818L278.634 122.06L276.39 115.952H277.59L279.174 120.488L280.77 115.952H281.97ZM285.411 122.096C283.599 122.096 282.291 120.788 282.291 118.976C282.291 117.164 283.599 115.856 285.411 115.856C287.223 115.856 288.519 117.164 288.519 118.976C288.519 120.788 287.223 122.096 285.411 122.096ZM285.411 121.076C286.551 121.076 287.331 120.212 287.331 118.976C287.331 117.74 286.551 116.876 285.411 116.876C284.259 116.876 283.479 117.74 283.479 118.976C283.479 120.212 284.259 121.076 285.411 121.076ZM295.022 115.952V122H293.858V120.932C293.534 121.688 292.814 122.096 291.914 122.096C290.546 122.096 289.658 121.112 289.658 119.672V115.952H290.822V119.444C290.822 120.404 291.386 121.052 292.238 121.052C293.186 121.052 293.858 120.284 293.858 119.228V115.952H295.022ZM300.018 116.96H299.142C298.038 116.96 297.678 117.944 297.678 119.264V122H296.514V115.952H297.678V117.116C297.954 116.312 298.434 115.952 299.286 115.952H300.018V116.96ZM303.852 122V113.6H309.24V114.704H305.1V117.212H308.448V118.316H305.1V122H303.852ZM310.352 113.42H311.648V114.884H310.352V113.42ZM310.424 122V115.952H311.588V122H310.424ZM313.06 122V115.952H314.224V117.02C314.548 116.264 315.268 115.856 316.168 115.856C317.536 115.856 318.424 116.84 318.424 118.28V122H317.26V118.508C317.26 117.548 316.696 116.9 315.844 116.9C314.896 116.9 314.224 117.668 314.224 118.724V122H313.06ZM322.21 115.856C323.77 115.856 324.802 116.756 324.802 118.1V122H323.638V121.016C323.35 121.664 322.582 122.096 321.67 122.096C320.434 122.096 319.618 121.352 319.618 120.272C319.618 119.108 320.542 118.388 321.97 118.388H323.23C323.506 118.388 323.638 118.244 323.638 118.028C323.638 117.296 323.11 116.792 322.174 116.792C321.334 116.792 320.722 117.32 320.686 117.932H319.606C319.702 116.744 320.782 115.856 322.21 115.856ZM321.898 121.172C323.002 121.172 323.638 120.464 323.638 119.348V119.204H322.078C321.286 119.204 320.77 119.612 320.77 120.248C320.77 120.8 321.226 121.172 321.898 121.172ZM326.15 122V115.952H327.314V117.02C327.638 116.264 328.358 115.856 329.258 115.856C330.626 115.856 331.514 116.84 331.514 118.28V122H330.35V118.508C330.35 117.548 329.786 116.9 328.934 116.9C327.986 116.9 327.314 117.668 327.314 118.724V122H326.15ZM335.658 122.096C333.75 122.096 332.658 120.644 332.658 118.976C332.658 117.308 333.75 115.856 335.658 115.856C337.074 115.856 338.298 116.696 338.466 118.064H337.302C337.194 117.38 336.498 116.876 335.682 116.876C334.47 116.876 333.87 117.812 333.87 118.976C333.87 120.14 334.482 121.076 335.682 121.076C336.51 121.076 337.122 120.644 337.314 119.96H338.466C338.274 121.232 337.194 122.096 335.658 122.096ZM343.888 120.032H345.052C344.836 121.28 343.744 122.096 342.256 122.096C340.384 122.096 339.22 120.62 339.22 118.94C339.22 117.248 340.276 115.856 342.136 115.856C344.008 115.856 345.004 117.188 345.004 118.724C345.004 118.88 344.992 119.072 344.98 119.18H340.36C340.456 120.32 341.2 121.1 342.256 121.1C343.144 121.1 343.72 120.716 343.888 120.032ZM342.136 116.792C341.188 116.792 340.576 117.32 340.396 118.328H343.828C343.756 117.404 343.132 116.792 342.136 116.792ZM352.855 122.096C350.455 122.096 348.679 120.272 348.679 117.8C348.679 115.328 350.455 113.504 352.855 113.504C355.243 113.504 357.019 115.328 357.019 117.8C357.019 120.272 355.243 122.096 352.855 122.096ZM352.855 120.992C354.523 120.992 355.747 119.636 355.747 117.8C355.747 115.964 354.523 114.608 352.855 114.608C351.187 114.608 349.951 115.964 349.951 117.8C349.951 119.636 351.187 120.992 352.855 120.992ZM358.308 124.448V115.952H359.472V116.852C359.832 116.252 360.564 115.856 361.404 115.856C363.228 115.856 364.272 117.176 364.272 118.976C364.272 120.776 363.18 122.096 361.344 122.096C360.54 122.096 359.82 121.724 359.472 121.148V124.448H358.308ZM361.236 121.076C362.352 121.076 363.096 120.236 363.096 118.976C363.096 117.716 362.352 116.876 361.236 116.876C360.108 116.876 359.376 117.716 359.376 118.976C359.376 120.236 360.108 121.076 361.236 121.076ZM369.728 120.032H370.892C370.676 121.28 369.584 122.096 368.096 122.096C366.224 122.096 365.06 120.62 365.06 118.94C365.06 117.248 366.116 115.856 367.976 115.856C369.848 115.856 370.844 117.188 370.844 118.724C370.844 118.88 370.832 119.072 370.82 119.18H366.2C366.296 120.32 367.04 121.1 368.096 121.1C368.984 121.1 369.56 120.716 369.728 120.032ZM367.976 116.792C367.028 116.792 366.416 117.32 366.236 118.328H369.668C369.596 117.404 368.972 116.792 367.976 116.792ZM375.533 116.96H374.657C373.553 116.96 373.193 117.944 373.193 119.264V122H372.029V115.952H373.193V117.116C373.469 116.312 373.949 115.952 374.801 115.952H375.533V116.96ZM378.671 115.856C380.231 115.856 381.263 116.756 381.263 118.1V122H380.099V121.016C379.811 121.664 379.043 122.096 378.131 122.096C376.895 122.096 376.079 121.352 376.079 120.272C376.079 119.108 377.003 118.388 378.431 118.388H379.691C379.967 118.388 380.099 118.244 380.099 118.028C380.099 117.296 379.571 116.792 378.635 116.792C377.795 116.792 377.183 117.32 377.147 117.932H376.067C376.163 116.744 377.243 115.856 378.671 115.856ZM378.359 121.172C379.463 121.172 380.099 120.464 380.099 119.348V119.204H378.539C377.747 119.204 377.231 119.612 377.231 120.248C377.231 120.8 377.687 121.172 378.359 121.172ZM383.249 114.056H384.413V115.952H386.201V116.96H384.413V119.984C384.413 120.632 384.761 120.992 385.349 120.992H386.201V122H385.253C384.029 122 383.249 121.256 383.249 120.02V116.96H382.013V115.952H383.249V114.056ZM387.121 113.42H388.417V114.884H387.121V113.42ZM387.193 122V115.952H388.357V122H387.193ZM392.602 122.096C390.79 122.096 389.482 120.788 389.482 118.976C389.482 117.164 390.79 115.856 392.602 115.856C394.414 115.856 395.71 117.164 395.71 118.976C395.71 120.788 394.414 122.096 392.602 122.096ZM392.602 121.076C393.742 121.076 394.522 120.212 394.522 118.976C394.522 117.74 393.742 116.876 392.602 116.876C391.45 116.876 390.67 117.74 390.67 118.976C390.67 120.212 391.45 121.076 392.602 121.076ZM396.849 122V115.952H398.013V117.02C398.337 116.264 399.057 115.856 399.957 115.856C401.325 115.856 402.213 116.84 402.213 118.28V122H401.049V118.508C401.049 117.548 400.485 116.9 399.633 116.9C398.685 116.9 398.013 117.668 398.013 118.724V122H396.849ZM405.829 122.096C404.413 122.096 403.465 121.304 403.381 120.032H404.473C404.545 120.728 405.049 121.124 405.829 121.124C406.525 121.124 406.969 120.752 406.969 120.308C406.969 118.7 403.537 120.176 403.537 117.596C403.537 116.552 404.425 115.856 405.685 115.856C407.053 115.856 407.989 116.612 408.049 117.752H406.957C406.873 117.056 406.201 116.78 405.685 116.78C405.061 116.78 404.641 117.092 404.641 117.56C404.641 119.06 408.097 117.524 408.097 120.284C408.097 121.388 407.197 122.096 405.829 122.096Z" fill="#0542FC"/>
<rect x="85.5" y="142.5" width="156" height="31" rx="9.5" stroke="#E3E8EF"/>
<path d="M101.54 162L100.736 159.864H97.172L96.368 162H95.084L98.384 153.6H99.536L102.836 162H101.54ZM97.592 158.772H100.328L98.96 155.16L97.592 158.772ZM103.727 162V153.6H104.975V162H103.727ZM109.446 162V153.6H114.834V154.704H110.694V157.116H114.042V158.22H110.694V160.896H114.966V162H109.446ZM116.193 162V155.952H117.357V157.02C117.681 156.264 118.401 155.856 119.301 155.856C120.669 155.856 121.557 156.84 121.557 158.28V162H120.393V158.508C120.393 157.548 119.829 156.9 118.977 156.9C118.029 156.9 117.357 157.668 117.357 158.724V162H116.193ZM123.109 162V153.42H124.273V157.02C124.597 156.264 125.317 155.856 126.217 155.856C127.585 155.856 128.473 156.84 128.473 158.28V162H127.309V158.508C127.309 157.548 126.745 156.9 125.893 156.9C124.945 156.9 124.273 157.668 124.273 158.724V162H123.109ZM132.257 155.856C133.817 155.856 134.849 156.756 134.849 158.1V162H133.685V161.016C133.397 161.664 132.629 162.096 131.717 162.096C130.481 162.096 129.665 161.352 129.665 160.272C129.665 159.108 130.589 158.388 132.017 158.388H133.277C133.553 158.388 133.685 158.244 133.685 158.028C133.685 157.296 133.157 156.792 132.221 156.792C131.381 156.792 130.769 157.32 130.733 157.932H129.653C129.749 156.744 130.829 155.856 132.257 155.856ZM131.945 161.172C133.049 161.172 133.685 160.464 133.685 159.348V159.204H132.125C131.333 159.204 130.817 159.612 130.817 160.248C130.817 160.8 131.273 161.172 131.945 161.172ZM136.197 162V155.952H137.361V157.02C137.685 156.264 138.405 155.856 139.305 155.856C140.673 155.856 141.561 156.84 141.561 158.28V162H140.397V158.508C140.397 157.548 139.833 156.9 138.981 156.9C138.033 156.9 137.361 157.668 137.361 158.724V162H136.197ZM145.705 162.096C143.797 162.096 142.705 160.644 142.705 158.976C142.705 157.308 143.797 155.856 145.705 155.856C147.121 155.856 148.345 156.696 148.513 158.064H147.349C147.241 157.38 146.545 156.876 145.729 156.876C144.517 156.876 143.917 157.812 143.917 158.976C143.917 160.14 144.529 161.076 145.729 161.076C146.557 161.076 147.169 160.644 147.361 159.96H148.513C148.321 161.232 147.241 162.096 145.705 162.096ZM153.935 160.032H155.099C154.883 161.28 153.791 162.096 152.303 162.096C150.431 162.096 149.267 160.62 149.267 158.94C149.267 157.248 150.323 155.856 152.183 155.856C154.055 155.856 155.051 157.188 155.051 158.724C155.051 158.88 155.039 159.072 155.027 159.18H150.407C150.503 160.32 151.247 161.1 152.303 161.1C153.191 161.1 153.767 160.716 153.935 160.032ZM152.183 156.792C151.235 156.792 150.623 157.32 150.443 158.328H153.875C153.803 157.404 153.179 156.792 152.183 156.792ZM163.97 155.952L161.846 161.784L160.934 164.448H159.818L160.634 162.06L158.39 155.952H159.59L161.174 160.488L162.77 155.952H163.97ZM167.411 162.096C165.599 162.096 164.291 160.788 164.291 158.976C164.291 157.164 165.599 155.856 167.411 155.856C169.223 155.856 170.519 157.164 170.519 158.976C170.519 160.788 169.223 162.096 167.411 162.096ZM167.411 161.076C168.551 161.076 169.331 160.212 169.331 158.976C169.331 157.74 168.551 156.876 167.411 156.876C166.259 156.876 165.479 157.74 165.479 158.976C165.479 160.212 166.259 161.076 167.411 161.076ZM177.022 155.952V162H175.858V160.932C175.534 161.688 174.814 162.096 173.914 162.096C172.546 162.096 171.658 161.112 171.658 159.672V155.952H172.822V159.444C172.822 160.404 173.386 161.052 174.238 161.052C175.186 161.052 175.858 160.284 175.858 159.228V155.952H177.022ZM182.018 156.96H181.142C180.038 156.96 179.678 157.944 179.678 159.264V162H178.514V155.952H179.678V157.116C179.954 156.312 180.434 155.952 181.286 155.952H182.018V156.96ZM188.864 162.096C188.06 162.096 187.316 161.7 186.968 161.1V162H185.804V153.42H186.968V156.84C187.316 156.252 188.048 155.856 188.876 155.856C190.724 155.856 191.768 157.176 191.768 158.976C191.768 160.776 190.724 162.096 188.864 162.096ZM188.732 161.076C189.848 161.076 190.592 160.236 190.592 158.976C190.592 157.716 189.848 156.876 188.732 156.876C187.604 156.876 186.872 157.716 186.872 158.976C186.872 160.236 187.604 161.076 188.732 161.076ZM198.28 155.952V162H197.116V160.932C196.792 161.688 196.072 162.096 195.172 162.096C193.804 162.096 192.916 161.112 192.916 159.672V155.952H194.08V159.444C194.08 160.404 194.644 161.052 195.496 161.052C196.444 161.052 197.116 160.284 197.116 159.228V155.952H198.28ZM201.895 162.096C200.479 162.096 199.531 161.304 199.447 160.032H200.539C200.611 160.728 201.115 161.124 201.895 161.124C202.591 161.124 203.035 160.752 203.035 160.308C203.035 158.7 199.603 160.176 199.603 157.596C199.603 156.552 200.491 155.856 201.751 155.856C203.119 155.856 204.055 156.612 204.115 157.752H203.023C202.939 157.056 202.267 156.78 201.751 156.78C201.127 156.78 200.707 157.092 200.707 157.56C200.707 159.06 204.163 157.524 204.163 160.284C204.163 161.388 203.263 162.096 201.895 162.096ZM205.301 153.42H206.597V154.884H205.301V153.42ZM205.373 162V155.952H206.537V162H205.373ZM208.01 162V155.952H209.174V157.02C209.498 156.264 210.218 155.856 211.118 155.856C212.486 155.856 213.374 156.84 213.374 158.28V162H212.21V158.508C212.21 157.548 211.646 156.9 210.794 156.9C209.846 156.9 209.174 157.668 209.174 158.724V162H208.01ZM219.185 160.032H220.349C220.133 161.28 219.041 162.096 217.553 162.096C215.681 162.096 214.517 160.62 214.517 158.94C214.517 157.248 215.573 155.856 217.433 155.856C219.305 155.856 220.301 157.188 220.301 158.724C220.301 158.88 220.289 159.072 220.277 159.18H215.657C215.753 160.32 216.497 161.1 217.553 161.1C218.441 161.1 219.017 160.716 219.185 160.032ZM217.433 156.792C216.485 156.792 215.873 157.32 215.693 158.328H219.125C219.053 157.404 218.429 156.792 217.433 156.792ZM223.552 162.096C222.136 162.096 221.188 161.304 221.104 160.032H222.196C222.268 160.728 222.772 161.124 223.552 161.124C224.248 161.124 224.692 160.752 224.692 160.308C224.692 158.7 221.26 160.176 221.26 157.596C221.26 156.552 222.148 155.856 223.408 155.856C224.776 155.856 225.712 156.612 225.772 157.752H224.68C224.596 157.056 223.924 156.78 223.408 156.78C222.784 156.78 222.364 157.092 222.364 157.56C222.364 159.06 225.82 157.524 225.82 160.284C225.82 161.388 224.92 162.096 223.552 162.096ZM229.153 162.096C227.737 162.096 226.789 161.304 226.705 160.032H227.797C227.869 160.728 228.373 161.124 229.153 161.124C229.849 161.124 230.293 160.752 230.293 160.308C230.293 158.7 226.861 160.176 226.861 157.596C226.861 156.552 227.749 155.856 229.009 155.856C230.377 155.856 231.313 156.612 231.373 157.752H230.281C230.197 157.056 229.525 156.78 229.009 156.78C228.385 156.78 227.965 157.092 227.965 157.56C227.965 159.06 231.421 157.524 231.421 160.284C231.421 161.388 230.521 162.096 229.153 162.096Z" fill="#0542FC"/>
<g filter="url(#filter1_d_6404_943)">
<rect x="194" y="192" width="253" height="40" rx="10" fill="#43B75D"/>
<rect x="194" y="192" width="253" height="40" rx="10" fill="url(#paint2_linear_6404_943)"/>
<path d="M213.63 217L212.692 214.508H208.534L207.596 217H206.098L209.948 207.2H211.292L215.142 217H213.63ZM209.024 213.234H212.216L210.62 209.02L209.024 213.234ZM216.182 217V207.2H217.638V217H216.182ZM222.853 217V207.2H229.139V208.488H224.309V211.302H228.215V212.59H224.309V215.712H229.293V217H222.853ZM230.725 217V209.944H232.083V211.19C232.461 210.308 233.301 209.832 234.351 209.832C235.947 209.832 236.983 210.98 236.983 212.66V217H235.625V212.926C235.625 211.806 234.967 211.05 233.973 211.05C232.867 211.05 232.083 211.946 232.083 213.178V217H230.725ZM238.793 217V206.99H240.151V211.19C240.529 210.308 241.369 209.832 242.419 209.832C244.015 209.832 245.051 210.98 245.051 212.66V217H243.693V212.926C243.693 211.806 243.035 211.05 242.041 211.05C240.935 211.05 240.151 211.946 240.151 213.178V217H238.793ZM249.466 209.832C251.286 209.832 252.49 210.882 252.49 212.45V217H251.132V215.852C250.796 216.608 249.9 217.112 248.836 217.112C247.394 217.112 246.442 216.244 246.442 214.984C246.442 213.626 247.52 212.786 249.186 212.786H250.656C250.978 212.786 251.132 212.618 251.132 212.366C251.132 211.512 250.516 210.924 249.424 210.924C248.444 210.924 247.73 211.54 247.688 212.254H246.428C246.54 210.868 247.8 209.832 249.466 209.832ZM249.102 216.034C250.39 216.034 251.132 215.208 251.132 213.906V213.738H249.312C248.388 213.738 247.786 214.214 247.786 214.956C247.786 215.6 248.318 216.034 249.102 216.034ZM254.063 217V209.944H255.421V211.19C255.799 210.308 256.639 209.832 257.689 209.832C259.285 209.832 260.321 210.98 260.321 212.66V217H258.963V212.926C258.963 211.806 258.305 211.05 257.311 211.05C256.205 211.05 255.421 211.946 255.421 213.178V217H254.063ZM265.155 217.112C262.929 217.112 261.655 215.418 261.655 213.472C261.655 211.526 262.929 209.832 265.155 209.832C266.807 209.832 268.235 210.812 268.431 212.408H267.073C266.947 211.61 266.135 211.022 265.183 211.022C263.769 211.022 263.069 212.114 263.069 213.472C263.069 214.83 263.783 215.922 265.183 215.922C266.149 215.922 266.863 215.418 267.087 214.62H268.431C268.207 216.104 266.947 217.112 265.155 217.112ZM274.758 214.704H276.116C275.864 216.16 274.59 217.112 272.854 217.112C270.67 217.112 269.312 215.39 269.312 213.43C269.312 211.456 270.544 209.832 272.714 209.832C274.898 209.832 276.06 211.386 276.06 213.178C276.06 213.36 276.046 213.584 276.032 213.71H270.642C270.754 215.04 271.622 215.95 272.854 215.95C273.89 215.95 274.562 215.502 274.758 214.704ZM272.714 210.924C271.608 210.924 270.894 211.54 270.684 212.716H274.688C274.604 211.638 273.876 210.924 272.714 210.924ZM286.465 209.944L283.987 216.748L282.923 219.856H281.621L282.573 217.07L279.955 209.944H281.355L283.203 215.236L285.065 209.944H286.465ZM290.479 217.112C288.365 217.112 286.839 215.586 286.839 213.472C286.839 211.358 288.365 209.832 290.479 209.832C292.593 209.832 294.105 211.358 294.105 213.472C294.105 215.586 292.593 217.112 290.479 217.112ZM290.479 215.922C291.809 215.922 292.719 214.914 292.719 213.472C292.719 212.03 291.809 211.022 290.479 211.022C289.135 211.022 288.225 212.03 288.225 213.472C288.225 214.914 289.135 215.922 290.479 215.922ZM301.692 209.944V217H300.334V215.754C299.956 216.636 299.116 217.112 298.066 217.112C296.47 217.112 295.434 215.964 295.434 214.284V209.944H296.792V214.018C296.792 215.138 297.45 215.894 298.444 215.894C299.55 215.894 300.334 214.998 300.334 213.766V209.944H301.692ZM307.52 211.12H306.498C305.21 211.12 304.79 212.268 304.79 213.808V217H303.432V209.944H304.79V211.302C305.112 210.364 305.672 209.944 306.666 209.944H307.52V211.12ZM311.994 217V207.2H318.28V208.488H313.45V211.414H317.356V212.702H313.45V217H311.994ZM319.577 206.99H321.089V208.698H319.577V206.99ZM319.661 217V209.944H321.019V217H319.661ZM322.737 217V209.944H324.095V211.19C324.473 210.308 325.313 209.832 326.363 209.832C327.959 209.832 328.995 210.98 328.995 212.66V217H327.637V212.926C327.637 211.806 326.979 211.05 325.985 211.05C324.879 211.05 324.095 211.946 324.095 213.178V217H322.737ZM333.411 209.832C335.231 209.832 336.435 210.882 336.435 212.45V217H335.077V215.852C334.741 216.608 333.845 217.112 332.781 217.112C331.339 217.112 330.387 216.244 330.387 214.984C330.387 213.626 331.465 212.786 333.131 212.786H334.601C334.923 212.786 335.077 212.618 335.077 212.366C335.077 211.512 334.461 210.924 333.369 210.924C332.389 210.924 331.675 211.54 331.633 212.254H330.373C330.485 210.868 331.745 209.832 333.411 209.832ZM333.047 216.034C334.335 216.034 335.077 215.208 335.077 213.906V213.738H333.257C332.333 213.738 331.731 214.214 331.731 214.956C331.731 215.6 332.263 216.034 333.047 216.034ZM338.009 217V209.944H339.367V211.19C339.745 210.308 340.585 209.832 341.635 209.832C343.231 209.832 344.267 210.98 344.267 212.66V217H342.909V212.926C342.909 211.806 342.251 211.05 341.257 211.05C340.151 211.05 339.367 211.946 339.367 213.178V217H338.009ZM349.101 217.112C346.875 217.112 345.601 215.418 345.601 213.472C345.601 211.526 346.875 209.832 349.101 209.832C350.753 209.832 352.181 210.812 352.377 212.408H351.019C350.893 211.61 350.081 211.022 349.129 211.022C347.715 211.022 347.015 212.114 347.015 213.472C347.015 214.83 347.729 215.922 349.129 215.922C350.095 215.922 350.809 215.418 351.033 214.62H352.377C352.153 216.104 350.893 217.112 349.101 217.112ZM358.703 214.704H360.061C359.809 216.16 358.535 217.112 356.799 217.112C354.615 217.112 353.257 215.39 353.257 213.43C353.257 211.456 354.489 209.832 356.659 209.832C358.843 209.832 360.005 211.386 360.005 213.178C360.005 213.36 359.991 213.584 359.977 213.71H354.587C354.699 215.04 355.567 215.95 356.799 215.95C357.835 215.95 358.507 215.502 358.703 214.704ZM356.659 210.924C355.553 210.924 354.839 211.54 354.629 212.716H358.633C358.549 211.638 357.821 210.924 356.659 210.924ZM369.164 217.112C366.364 217.112 364.292 214.984 364.292 212.1C364.292 209.216 366.364 207.088 369.164 207.088C371.95 207.088 374.022 209.216 374.022 212.1C374.022 214.984 371.95 217.112 369.164 217.112ZM369.164 215.824C371.11 215.824 372.538 214.242 372.538 212.1C372.538 209.958 371.11 208.376 369.164 208.376C367.218 208.376 365.776 209.958 365.776 212.1C365.776 214.242 367.218 215.824 369.164 215.824ZM375.526 219.856V209.944H376.884V210.994C377.304 210.294 378.158 209.832 379.138 209.832C381.266 209.832 382.484 211.372 382.484 213.472C382.484 215.572 381.21 217.112 379.068 217.112C378.13 217.112 377.29 216.678 376.884 216.006V219.856H375.526ZM378.942 215.922C380.244 215.922 381.112 214.942 381.112 213.472C381.112 212.002 380.244 211.022 378.942 211.022C377.626 211.022 376.772 212.002 376.772 213.472C376.772 214.942 377.626 215.922 378.942 215.922ZM388.849 214.704H390.207C389.955 216.16 388.681 217.112 386.945 217.112C384.761 217.112 383.403 215.39 383.403 213.43C383.403 211.456 384.635 209.832 386.805 209.832C388.989 209.832 390.151 211.386 390.151 213.178C390.151 213.36 390.137 213.584 390.123 213.71H384.733C384.845 215.04 385.713 215.95 386.945 215.95C387.981 215.95 388.653 215.502 388.849 214.704ZM386.805 210.924C385.699 210.924 384.985 211.54 384.775 212.716H388.779C388.695 211.638 387.967 210.924 386.805 210.924ZM395.622 211.12H394.6C393.312 211.12 392.892 212.268 392.892 213.808V217H391.534V209.944H392.892V211.302C393.214 210.364 393.774 209.944 394.768 209.944H395.622V211.12ZM399.283 209.832C401.103 209.832 402.307 210.882 402.307 212.45V217H400.949V215.852C400.613 216.608 399.717 217.112 398.653 217.112C397.211 217.112 396.259 216.244 396.259 214.984C396.259 213.626 397.337 212.786 399.003 212.786H400.473C400.795 212.786 400.949 212.618 400.949 212.366C400.949 211.512 400.333 210.924 399.241 210.924C398.261 210.924 397.547 211.54 397.505 212.254H396.245C396.357 210.868 397.617 209.832 399.283 209.832ZM398.919 216.034C400.207 216.034 400.949 215.208 400.949 213.906V213.738H399.129C398.205 213.738 397.603 214.214 397.603 214.956C397.603 215.6 398.135 216.034 398.919 216.034ZM404.623 207.732H405.981V209.944H408.067V211.12H405.981V214.648C405.981 215.404 406.387 215.824 407.073 215.824H408.067V217H406.961C405.533 217 404.623 216.132 404.623 214.69V211.12H403.181V209.944H404.623V207.732ZM409.141 206.99H410.653V208.698H409.141V206.99ZM409.225 217V209.944H410.583V217H409.225ZM415.536 217.112C413.422 217.112 411.896 215.586 411.896 213.472C411.896 211.358 413.422 209.832 415.536 209.832C417.65 209.832 419.162 211.358 419.162 213.472C419.162 215.586 417.65 217.112 415.536 217.112ZM415.536 215.922C416.866 215.922 417.776 214.914 417.776 213.472C417.776 212.03 416.866 211.022 415.536 211.022C414.192 211.022 413.282 212.03 413.282 213.472C413.282 214.914 414.192 215.922 415.536 215.922ZM420.491 217V209.944H421.849V211.19C422.227 210.308 423.067 209.832 424.117 209.832C425.713 209.832 426.749 210.98 426.749 212.66V217H425.391V212.926C425.391 211.806 424.733 211.05 423.739 211.05C422.633 211.05 421.849 211.946 421.849 213.178V217H420.491ZM430.967 217.112C429.315 217.112 428.209 216.188 428.111 214.704H429.385C429.469 215.516 430.057 215.978 430.967 215.978C431.779 215.978 432.297 215.544 432.297 215.026C432.297 213.15 428.293 214.872 428.293 211.862C428.293 210.644 429.329 209.832 430.799 209.832C432.395 209.832 433.487 210.714 433.557 212.044H432.283C432.185 211.232 431.401 210.91 430.799 210.91C430.071 210.91 429.581 211.274 429.581 211.82C429.581 213.57 433.613 211.778 433.613 214.998C433.613 216.286 432.563 217.112 430.967 217.112Z" fill="white"/>
</g>
<g filter="url(#filter2_d_6404_943)">
<rect x="33" y="297" width="414" height="150" rx="18" fill="white" shape-rendering="crispEdges"/>
<rect x="33.5" y="297.5" width="413" height="149" rx="17.5" stroke="#E3E8EF" shape-rendering="crispEdges"/>
<path d="M64.06 340L62.62 336.22H56.38L54.92 340H53.14L58.72 326H60.26L65.84 340H64.06ZM56.96 334.7H62.02L59.5 328.1L56.96 334.7ZM70.8083 340.16C68.4683 340.16 66.9483 338.86 66.7883 336.76H68.3283C68.4683 338.06 69.3483 338.76 70.8083 338.76C72.0683 338.76 72.9083 338.06 72.9083 337.24C72.9083 334.24 67.0483 336.94 67.0483 332.58C67.0483 330.88 68.4883 329.76 70.6083 329.76C72.8283 329.76 74.3283 330.98 74.4483 332.84H72.8883C72.7483 331.56 71.4883 331.12 70.5683 331.12C69.3883 331.12 68.6083 331.68 68.6083 332.56C68.6083 335.28 74.5083 332.58 74.5083 337.2C74.5083 339 73.0283 340.16 70.8083 340.16ZM83.6428 340L79.7228 334.96L78.4028 336.16V340H76.7828V325.78H78.4028V334.18L83.1428 329.92H85.2628L80.9428 333.86L85.6628 340H83.6428ZM95.8763 329.76C98.4963 329.76 100.136 331.26 100.136 333.5V340H98.5363V338.26C97.9963 339.42 96.6563 340.16 95.0963 340.16C92.9763 340.16 91.5963 338.96 91.5963 337.12C91.5963 335.2 93.1763 333.98 95.6163 333.98H97.8963C98.3363 333.98 98.5363 333.76 98.5363 333.44C98.5363 332.06 97.5563 331.12 95.8363 331.12C94.3563 331.12 93.1963 332.04 93.1163 333.14H91.5963C91.7763 331.2 93.6163 329.76 95.8763 329.76ZM95.3363 338.8C97.3563 338.8 98.5363 337.54 98.5363 335.46V335.2H95.7163C94.2163 335.2 93.2363 335.92 93.2363 337.1C93.2363 338.14 94.0563 338.8 95.3363 338.8ZM102.504 340V329.92H104.104V331.86C104.624 330.46 105.884 329.76 107.424 329.76C109.704 329.76 111.184 331.38 111.184 333.84V340H109.584V334.1C109.584 332.38 108.584 331.22 107.064 331.22C105.344 331.22 104.104 332.6 104.104 334.56V340H102.504ZM121.5 329.92L118.3 338.62L116.46 344.08H114.92L116.2 340.16L112.44 329.92H114.1L116.96 337.92L119.82 329.92H121.5ZM124.17 326.7H125.77V329.92H128.87V331.34H125.77V336.8C125.77 337.92 126.41 338.58 127.39 338.58H128.87V340H127.33C125.41 340 124.17 338.8 124.17 336.84V331.34H122.07V329.92H124.17V326.7ZM130.826 340V325.78H132.426V331.86C132.946 330.46 134.206 329.76 135.746 329.76C138.026 329.76 139.506 331.38 139.506 333.84V340H137.906V334.1C137.906 332.38 136.906 331.22 135.386 331.22C133.666 331.22 132.426 332.6 132.426 334.56V340H130.826ZM142.032 325.78H143.872V328.02H142.032V325.78ZM142.152 340V329.92H143.752V340H142.152ZM146.39 340V329.92H147.99V331.86C148.51 330.46 149.77 329.76 151.31 329.76C153.59 329.76 155.07 331.38 155.07 333.84V340H153.47V334.1C153.47 332.38 152.47 331.22 150.95 331.22C149.23 331.22 147.99 332.6 147.99 334.56V340H146.39ZM165.418 329.92H167.018V340.44C167.018 342.58 165.478 344.08 163.298 344.08H158.538V342.7H163.198C164.498 342.7 165.418 341.72 165.418 340.38V338.6C164.938 339.54 163.598 340.16 162.078 340.16C158.938 340.16 157.218 337.9 157.218 334.96C157.218 332.02 158.938 329.76 162.078 329.76C163.438 329.76 164.798 330.44 165.418 331.4V329.92ZM162.218 338.72C164.238 338.72 165.558 337.24 165.558 334.96C165.558 332.68 164.238 331.2 162.218 331.2C160.178 331.2 158.858 332.68 158.858 334.96C158.858 337.24 160.178 338.72 162.218 338.72ZM173.23 340.16C170.89 340.16 169.37 338.86 169.21 336.76H170.75C170.89 338.06 171.77 338.76 173.23 338.76C174.49 338.76 175.33 338.06 175.33 337.24C175.33 334.24 169.47 336.94 169.47 332.58C169.47 330.88 170.91 329.76 173.03 329.76C175.25 329.76 176.75 330.98 176.87 332.84H175.31C175.17 331.56 173.91 331.12 172.99 331.12C171.81 331.12 171.03 331.68 171.03 332.56C171.03 335.28 176.93 332.58 176.93 337.2C176.93 339 175.45 340.16 173.23 340.16ZM184.19 338.12H185.97V340H184.19V338.12ZM189.19 338.12H190.97V340H189.19V338.12ZM194.19 338.12H195.97V340H194.19V338.12Z" fill="#6B7B94"/>
<rect x="53.5" y="387.5" width="39" height="39" rx="19.5" fill="white"/>
<rect x="53.5" y="387.5" width="39" height="39" rx="19.5" stroke="#E3E8EF"/>
<path d="M66.8125 407H79.1875" stroke="#556377" stroke-width="1.2" stroke-linecap="round" stroke-linejoin="round"/>
<path d="M73 400.812V413.188" stroke="#556377" stroke-width="1.2" stroke-linecap="round" stroke-linejoin="round"/>
<rect x="101.5" y="387.5" width="134" height="39" rx="19.5" fill="white"/>
<rect x="101.5" y="387.5" width="134" height="39" rx="19.5" stroke="#E5E9F1"/>
<path d="M126 413.75C129.728 413.75 132.75 410.728 132.75 407C132.75 403.272 129.728 400.25 126 400.25C122.272 400.25 119.25 403.272 119.25 407C119.25 410.728 122.272 413.75 126 413.75Z" stroke="#556377" stroke-width="1.2" stroke-miterlimit="10"/>
<path d="M119.637 404.75H132.363" stroke="#556377" stroke-width="1.2" stroke-linecap="round" stroke-linejoin="round"/>
<path d="M119.637 409.25H132.363" stroke="#556377" stroke-width="1.2" stroke-linecap="round" stroke-linejoin="round"/>
<path d="M126 413.567C127.553 413.567 128.812 410.627 128.812 407C128.812 403.373 127.553 400.433 126 400.433C124.447 400.433 123.188 403.373 123.188 407C123.188 410.627 124.447 413.567 126 413.567Z" stroke="#556377" stroke-width="1.2" stroke-miterlimit="10"/>
<path d="M146.346 412.5L143.308 402.7H144.554L146.962 410.694L149.44 402.7H150.504L152.968 410.694L155.404 402.7H156.622L153.626 412.5H152.394L149.972 404.534L147.536 412.5H146.346ZM162.065 410.232H163.199C162.961 411.674 161.715 412.612 159.965 412.612C157.879 412.612 156.479 410.946 156.479 408.93C156.479 406.858 157.767 405.332 159.839 405.332C161.897 405.332 163.129 406.76 163.129 408.636C163.129 408.79 163.115 409.028 163.101 409.126H157.585C157.669 410.582 158.635 411.618 159.965 411.618C161.113 411.618 161.841 411.114 162.065 410.232ZM159.839 406.284C158.649 406.284 157.851 406.984 157.641 408.23H161.981C161.897 407.04 161.099 406.284 159.839 406.284ZM168.151 412.612C167.171 412.612 166.247 412.108 165.813 411.338V412.5H164.693V402.546H165.813V406.592C166.247 405.836 167.157 405.332 168.151 405.332C170.349 405.332 171.553 406.914 171.553 408.972C171.553 411.03 170.349 412.612 168.151 412.612ZM168.053 411.604C169.481 411.604 170.405 410.568 170.405 408.972C170.405 407.376 169.481 406.34 168.053 406.34C166.639 406.34 165.715 407.376 165.715 408.972C165.715 410.568 166.639 411.604 168.053 411.604ZM179.616 412.612C177.418 412.612 176.018 411.296 175.892 409.294H177.068C177.194 410.652 178.09 411.534 179.616 411.534C180.974 411.534 181.954 411.016 181.954 409.826C181.954 407.306 176.228 408.692 176.228 405.192C176.228 403.638 177.586 402.588 179.546 402.588C181.506 402.588 182.864 403.722 183.004 405.486H181.828C181.716 404.38 180.862 403.666 179.546 403.666C178.216 403.666 177.432 404.254 177.432 405.192C177.432 407.698 183.2 406.144 183.2 409.826C183.2 411.604 181.66 412.612 179.616 412.612ZM189.819 410.232H190.953C190.715 411.674 189.469 412.612 187.719 412.612C185.633 412.612 184.233 410.946 184.233 408.93C184.233 406.858 185.521 405.332 187.593 405.332C189.651 405.332 190.883 406.76 190.883 408.636C190.883 408.79 190.869 409.028 190.855 409.126H185.339C185.423 410.582 186.389 411.618 187.719 411.618C188.867 411.618 189.595 411.114 189.819 410.232ZM187.593 406.284C186.403 406.284 185.605 406.984 185.395 408.23H189.735C189.651 407.04 188.853 406.284 187.593 406.284ZM195.052 405.332C196.886 405.332 198.034 406.382 198.034 407.95V412.5H196.914V411.282C196.536 412.094 195.598 412.612 194.506 412.612C193.022 412.612 192.056 411.772 192.056 410.484C192.056 409.14 193.162 408.286 194.87 408.286H196.466C196.774 408.286 196.914 408.132 196.914 407.908C196.914 406.942 196.228 406.284 195.024 406.284C193.988 406.284 193.176 406.928 193.12 407.698H192.056C192.182 406.34 193.47 405.332 195.052 405.332ZM194.674 411.66C196.088 411.66 196.914 410.778 196.914 409.322V409.14H194.94C193.89 409.14 193.204 409.644 193.204 410.47C193.204 411.198 193.778 411.66 194.674 411.66ZM203.626 406.438H202.646C201.218 406.438 200.812 407.726 200.812 409.392V412.5H199.692V405.444H200.812V406.872C201.106 405.906 201.694 405.444 202.73 405.444H203.626V406.438ZM207.514 412.612C205.288 412.612 204.084 410.862 204.084 408.972C204.084 407.082 205.288 405.332 207.514 405.332C209.096 405.332 210.51 406.256 210.72 407.824H209.614C209.474 406.97 208.592 406.34 207.528 406.34C205.988 406.34 205.246 407.53 205.246 408.972C205.246 410.414 206.002 411.604 207.528 411.604C208.592 411.604 209.362 411.072 209.614 410.218H210.706C210.468 411.66 209.306 412.612 207.514 412.612ZM212.148 412.5V402.546H213.268V406.802C213.632 405.822 214.514 405.332 215.592 405.332C217.188 405.332 218.224 406.466 218.224 408.188V412.5H217.104V408.37C217.104 407.166 216.404 406.354 215.34 406.354C214.136 406.354 213.268 407.32 213.268 408.692V412.5H212.148Z" fill="#111729"/>
<rect x="339.5" y="387.5" width="39" height="39" rx="19.5" fill="white"/>
<rect x="339.5" y="387.5" width="39" height="39" rx="19.5" stroke="#E3E8EF"/>
<path d="M361.812 402.5C361.812 400.947 360.553 399.688 359 399.688C357.447 399.688 356.188 400.947 356.188 402.5V407C356.188 408.553 357.447 409.812 359 409.812C360.553 409.812 361.812 408.553 361.812 407V402.5Z" stroke="#556377" stroke-width="1.2" stroke-linecap="round" stroke-linejoin="round"/>
<path d="M359 412.062V414.312" stroke="#556377" stroke-width="1.2" stroke-linecap="round" stroke-linejoin="round"/>
<path d="M364.034 407.562C363.888 408.795 363.295 409.932 362.367 410.756C361.439 411.581 360.241 412.036 359 412.036C357.759 412.036 356.561 411.581 355.633 410.756C354.705 409.932 354.112 408.795 353.966 407.562" stroke="#556377" stroke-width="1.2" stroke-linecap="round" stroke-linejoin="round"/>
<g filter="url(#filter3_i_6404_943)">
<rect x="387" y="387" width="40" height="40" rx="20" fill="url(#paint3_linear_6404_943)"/>
<rect x="387.5" y="387.5" width="39" height="39" rx="19.5" stroke="url(#paint4_linear_6404_943)"/>
<path d="M407.752 409.84L406.402 413.503C406.362 413.611 406.29 413.704 406.196 413.769C406.102 413.835 405.99 413.87 405.875 413.87C405.76 413.87 405.648 413.835 405.554 413.769C405.46 413.704 405.388 413.611 405.348 413.503L403.998 409.84C403.969 409.763 403.924 409.692 403.866 409.634C403.808 409.576 403.737 409.531 403.66 409.502L399.997 408.152C399.889 408.112 399.796 408.04 399.731 407.946C399.665 407.852 399.63 407.74 399.63 407.625C399.63 407.51 399.665 407.398 399.731 407.304C399.796 407.21 399.889 407.138 399.997 407.098L403.66 405.748C403.737 405.719 403.808 405.674 403.866 405.616C403.924 405.558 403.969 405.487 403.998 405.41L405.348 401.747C405.388 401.639 405.46 401.546 405.554 401.481C405.648 401.415 405.76 401.38 405.875 401.38C405.99 401.38 406.102 401.415 406.196 401.481C406.29 401.546 406.362 401.639 406.402 401.747L407.752 405.41C407.781 405.487 407.826 405.558 407.884 405.616C407.942 405.674 408.013 405.719 408.09 405.748L411.753 407.098C411.861 407.138 411.954 407.21 412.019 407.304C412.085 407.398 412.12 407.51 412.12 407.625C412.12 407.74 412.085 407.852 412.019 407.946C411.954 408.04 411.861 408.112 411.753 408.152L408.09 409.502C408.013 409.531 407.942 409.576 407.884 409.634C407.826 409.692 407.781 409.763 407.752 409.84V409.84Z" stroke="white" stroke-width="1.2" stroke-linecap="round" stroke-linejoin="round"/>
<path d="M410.375 398.625V402" stroke="white" stroke-width="1.2" stroke-linecap="round" stroke-linejoin="round"/>
<path d="M412.062 400.312H408.688" stroke="white" stroke-width="1.2" stroke-linecap="round" stroke-linejoin="round"/>
<path d="M413.75 402.562V404.812" stroke="white" stroke-width="1.2" stroke-linecap="round" stroke-linejoin="round"/>
<path d="M414.875 403.688H412.625" stroke="white" stroke-width="1.2" stroke-linecap="round" stroke-linejoin="round"/>
</g>
<line x1="40" y1="446.5" x2="440" y2="446.5" stroke="url(#paint5_linear_6404_943)"/>
</g>
</g>
<defs>
<filter id="filter0_d_6404_943" x="73" y="44" width="294" height="64" filterUnits="userSpaceOnUse" color-interpolation-filters="sRGB">
<feFlood flood-opacity="0" result="BackgroundImageFix"/>
<feColorMatrix in="SourceAlpha" type="matrix" values="0 0 0 0 0 0 0 0 0 0 0 0 0 0 0 0 0 0 127 0" result="hardAlpha"/>
<feOffset dy="2"/>
<feGaussianBlur stdDeviation="6"/>
<feComposite in2="hardAlpha" operator="out"/>
<feColorMatrix type="matrix" values="0 0 0 0 0 0 0 0 0 0 0 0 0 0 0 0 0 0 0.04 0"/>
<feBlend mode="normal" in2="BackgroundImageFix" result="effect1_dropShadow_6404_943"/>
<feBlend mode="normal" in="SourceGraphic" in2="effect1_dropShadow_6404_943" result="shape"/>
</filter>
<filter id="filter1_d_6404_943" x="182" y="186" width="277" height="64" filterUnits="userSpaceOnUse" color-interpolation-filters="sRGB">
<feFlood flood-opacity="0" result="BackgroundImageFix"/>
<feColorMatrix in="SourceAlpha" type="matrix" values="0 0 0 0 0 0 0 0 0 0 0 0 0 0 0 0 0 0 127 0" result="hardAlpha"/>
<feOffset dy="6"/>
<feGaussianBlur stdDeviation="6"/>
<feComposite in2="hardAlpha" operator="out"/>
<feColorMatrix type="matrix" values="0 0 0 0 0 0 0 0 0 0 0 0 0 0 0 0 0 0 0.06 0"/>
<feBlend mode="normal" in2="BackgroundImageFix" result="effect1_dropShadow_6404_943"/>
<feBlend mode="normal" in="SourceGraphic" in2="effect1_dropShadow_6404_943" result="shape"/>
</filter>
<filter id="filter2_d_6404_943" x="1" y="277" width="478" height="214" filterUnits="userSpaceOnUse" color-interpolation-filters="sRGB">
<feFlood flood-opacity="0" result="BackgroundImageFix"/>
<feColorMatrix in="SourceAlpha" type="matrix" values="0 0 0 0 0 0 0 0 0 0 0 0 0 0 0 0 0 0 127 0" result="hardAlpha"/>
<feOffset dy="12"/>
<feGaussianBlur stdDeviation="16"/>
<feComposite in2="hardAlpha" operator="out"/>
<feColorMatrix type="matrix" values="0 0 0 0 0 0 0 0 0 0 0 0 0 0 0 0 0 0 0.08 0"/>
<feBlend mode="normal" in2="BackgroundImageFix" result="effect1_dropShadow_6404_943"/>
<feBlend mode="normal" in="SourceGraphic" in2="effect1_dropShadow_6404_943" result="shape"/>
</filter>
<filter id="filter3_i_6404_943" x="387" y="387" width="40" height="41" filterUnits="userSpaceOnUse" color-interpolation-filters="sRGB">
<feFlood flood-opacity="0" result="BackgroundImageFix"/>
<feBlend mode="normal" in="SourceGraphic" in2="BackgroundImageFix" result="shape"/>
<feColorMatrix in="SourceAlpha" type="matrix" values="0 0 0 0 0 0 0 0 0 0 0 0 0 0 0 0 0 0 127 0" result="hardAlpha"/>
<feOffset dy="2"/>
<feGaussianBlur stdDeviation="0.5"/>
<feComposite in2="hardAlpha" operator="arithmetic" k2="-1" k3="1"/>
<feColorMatrix type="matrix" values="0 0 0 0 1 0 0 0 0 1 0 0 0 0 1 0 0 0 0.24 0"/>
<feBlend mode="normal" in2="shape" result="effect1_innerShadow_6404_943"/>
</filter>
<linearGradient id="paint0_linear_6404_943" x1="410.164" y1="-143.294" x2="301.601" y2="380.379" gradientUnits="userSpaceOnUse">
<stop stop-color="#93D2FF"/>
<stop offset="0.591346" stop-color="#0542FC"/>
<stop offset="1" stop-color="#E3E8F1"/>
</linearGradient>
<linearGradient id="paint1_linear_6404_943" x1="53.113" y1="36" x2="52.1299" y2="93.9852" gradientUnits="userSpaceOnUse">
<stop stop-color="#93D2FF"/>
<stop offset="1" stop-color="#0542FC"/>
</linearGradient>
<linearGradient id="paint2_linear_6404_943" x1="321.215" y1="174" x2="321.059" y2="232.001" gradientUnits="userSpaceOnUse">
<stop stop-color="#93D2FF"/>
<stop offset="1" stop-color="#0542FC"/>
</linearGradient>
<linearGradient id="paint3_linear_6404_943" x1="407.113" y1="369" x2="406.13" y2="426.985" gradientUnits="userSpaceOnUse">
<stop stop-color="#93D2FF"/>
<stop offset="1" stop-color="#0542FC"/>
</linearGradient>
<linearGradient id="paint4_linear_6404_943" x1="407" y1="387" x2="407" y2="427" gradientUnits="userSpaceOnUse">
<stop stop-color="#0542FC"/>
<stop offset="1" stop-color="#3567FD"/>
</linearGradient>
<linearGradient id="paint5_linear_6404_943" x1="40" y1="447.5" x2="440" y2="447.5" gradientUnits="userSpaceOnUse">
<stop stop-color="#93D2FF" stop-opacity="0"/>
<stop offset="0.25" stop-color="#93D2FF"/>
<stop offset="0.5" stop-color="#0542FC"/>
<stop offset="0.75" stop-color="#93D2FF"/>
<stop offset="1" stop-color="#93D2FF" stop-opacity="0"/>
</linearGradient>
<clipPath id="clip0_6404_943">
<rect x="1" y="30" width="478" height="449" rx="19" fill="white"/>
</clipPath>
</defs>
</svg>
