<svg width="90" height="36" viewBox="0 0 90 36" fill="none" xmlns="http://www.w3.org/2000/svg">
<g clip-path="url(#clip0_6404_911)">
<path d="M11.6602 7.87109C5.31649 7.87109 0.0302734 10.5552 0.0302734 18.6529C0.0302734 25.0681 3.58487 29.108 11.824 29.108C21.5219 29.108 22.1435 22.7369 22.1435 22.7369H17.4445C17.4445 22.7369 16.4369 26.1675 11.5374 26.1675C7.54678 26.1675 4.6766 23.479 4.6766 19.7107H22.6349V17.346C22.6349 13.618 20.2619 7.87109 11.6602 7.87109ZM11.4964 10.8933C15.295 10.8933 17.8847 13.2141 17.8847 16.6926H4.78053C4.78053 12.9998 8.16069 10.8933 11.4964 10.8933Z" fill="#0E1422"/>
<path d="M22.6319 0.0292969V25.0408C22.6319 26.4606 22.5303 28.4541 22.5303 28.4541H27.0122C27.0122 28.4541 27.1731 27.0223 27.1731 25.7138C27.1731 25.7138 29.3874 29.1688 35.4084 29.1688C41.7488 29.1688 46.0556 24.7787 46.0556 18.4891C46.0556 12.6379 42.0997 7.93187 35.4187 7.93187C29.1624 7.93187 27.2183 11.3012 27.2183 11.3012V0.0292969H22.6319ZM34.2618 11.0255C38.5674 11.0255 41.3053 14.2124 41.3053 18.4891C41.3053 23.075 38.1431 26.0751 34.2925 26.0751C29.6972 26.0751 27.2183 22.4967 27.2183 18.5299C27.2183 14.8336 29.4427 11.0255 34.2618 11.0255Z" fill="#0E1422"/>
<path d="M57.1924 7.87122C47.6488 7.87122 47.0367 13.0828 47.0367 13.9156H51.787C51.787 13.9156 52.0361 10.873 56.8648 10.873C60.0026 10.873 62.4341 12.3053 62.4341 15.0591V16.0393H56.8648C49.4712 16.0393 45.5625 18.1963 45.5625 22.5737C45.5625 26.8816 49.174 29.2255 54.0546 29.2255C60.7061 29.2255 62.8487 25.5601 62.8487 25.5601C62.8487 27.018 62.9614 28.4547 62.9614 28.4547H67.1844C67.1844 28.4547 67.0206 26.6739 67.0206 25.5346V15.687C67.0206 9.23008 61.7983 7.87122 57.1924 7.87122ZM62.4341 18.9797V20.2866C62.4341 21.9912 61.3794 26.2289 55.1705 26.2289C51.7705 26.2289 50.3128 24.5366 50.3128 22.5737C50.3128 19.0027 55.2219 18.9797 62.4341 18.9797Z" fill="#0E1422"/>
<path d="M64.4615 8.68958H69.8055L77.475 24.0134L85.1268 8.68958H89.9678L76.03 35.9708H70.9521L74.9741 28.3658L64.4615 8.68958Z" fill="#0E1422"/>
</g>
<defs>
<clipPath id="clip0_6404_911">
<rect width="90" height="36" fill="white"/>
</clipPath>
</defs>
</svg>
