<svg width="129" height="30" viewBox="0 0 129 30" fill="none" xmlns="http://www.w3.org/2000/svg">
<g clip-path="url(#clip0_6404_931)">
<path d="M4.5986 14.402V7.92361H8.12578C10.3429 7.92361 11.653 9.11962 11.653 11.113C11.653 13.0067 10.3429 14.3023 8.12578 14.3023H4.5986V14.402ZM8.62966 18.0897C13.1646 18.0897 16.0871 15.1994 16.0871 11.113C16.0871 7.0266 13.0638 4.13623 8.62966 4.13623H0.164429V26.5615H4.5986V18.0897H8.62966Z" fill="#0E1422"/>
<path d="M23.3437 17.3921C23.4445 15.6977 24.4522 14.3024 26.2662 14.3024C28.2818 14.3024 29.1888 15.6977 29.1888 17.3921V26.4618H33.4214V16.5947C33.4214 13.206 31.6074 10.4153 27.5763 10.4153C26.0647 10.4153 24.3515 10.9137 23.3437 12.1097V3.4386H19.1111V26.3622H23.3437V17.3921Z" fill="#0E1422"/>
<path d="M36.7468 22.3754C36.7468 24.7674 38.7623 27.0598 42.1887 27.0598C44.5066 27.0598 46.0182 25.9635 46.8244 24.7674C46.8244 25.3654 46.9252 26.2625 47.026 26.6611H50.9563C50.8555 26.1628 50.7547 24.9668 50.7547 24.1694V16.495C50.7547 13.4053 48.9407 10.6146 43.9019 10.6146C39.6693 10.6146 37.3514 13.3057 37.1499 15.7973L40.9794 16.5947C41.0802 15.1993 42.0879 14.103 44.0027 14.103C45.8167 14.103 46.6229 15 46.6229 16.0963C46.6229 16.5947 46.3205 17.093 45.4136 17.1927L41.584 17.7907C38.8631 17.99 36.7468 19.5847 36.7468 22.3754ZM43.0957 23.8704C41.6848 23.8704 41.0802 22.9734 41.0802 22.0764C41.0802 20.8804 41.9871 20.2824 42.9949 20.0831L46.5221 19.5847V20.2824C46.5221 23.0731 44.9097 23.8704 43.0957 23.8704Z" fill="#0E1422"/>
<path d="M59.3211 17.5914C59.3211 15.7973 60.4297 14.402 62.2437 14.402C64.2592 14.402 65.1662 15.7973 65.1662 17.4917V26.5615H69.3988V16.6944C69.3988 13.3057 67.5848 10.515 63.6545 10.515C61.9413 10.515 60.0266 11.2126 59.1196 12.907V11.0133H54.9877V26.5615H59.2204V17.5914H59.3211Z" fill="#0E1422"/>
<path d="M78.9721 6.32892H75.1426V8.52161C75.1426 9.91696 74.3364 11.0133 72.7239 11.0133H71.9177V14.8007H74.7395V22.0764C74.7395 25.0665 76.6542 26.8605 79.7783 26.8605C80.9876 26.8605 81.7938 26.6611 82.197 26.4618V22.9734C81.9954 23.0731 81.3907 23.0731 80.8869 23.0731C79.6775 23.0731 79.0729 22.6744 79.0729 21.2791V14.701H82.197V10.9136H79.0729V6.32892H78.9721Z" fill="#0E1422"/>
<path d="M92.6776 23.2724C90.5613 23.2724 88.6466 21.7774 88.6466 18.7874C88.6466 15.7973 90.5613 14.3023 92.6776 14.3023C94.7939 14.3023 96.7087 15.7973 96.7087 18.7874C96.7087 21.7774 94.7939 23.2724 92.6776 23.2724ZM92.6776 10.515C87.9411 10.515 84.4139 14.0033 84.4139 18.7874C84.4139 23.5714 87.9411 27.0598 92.6776 27.0598C97.4141 27.0598 100.941 23.5714 100.941 18.7874C100.941 14.0033 97.4141 10.515 92.6776 10.515Z" fill="#0E1422"/>
<path d="M108.6 26.5615V17.4917C108.6 15.7973 109.708 14.402 111.522 14.402C113.437 14.402 114.344 15.6977 114.344 17.392V26.6611H118.577V17.4917C118.577 15.7973 119.685 14.402 121.499 14.402C123.414 14.402 124.321 15.6977 124.321 17.392V26.6611H128.453V16.495C128.453 12.309 125.631 10.6146 122.709 10.6146C120.592 10.6146 118.98 11.3123 117.67 13.206C116.864 11.5116 115.15 10.6146 113.034 10.6146C111.321 10.6146 109.305 11.412 108.398 13.0066V11.113H104.367V26.6611H108.6V26.5615Z" fill="#0E1422"/>
</g>
<defs>
<clipPath id="clip0_6404_931">
<rect width="129" height="30" fill="white"/>
</clipPath>
</defs>
</svg>
