<svg width="146" height="32" viewBox="0 0 146 32" fill="none" xmlns="http://www.w3.org/2000/svg">
<g clip-path="url(#clip0_6404_917)">
<path fill-rule="evenodd" clip-rule="evenodd" d="M30.1363 8.66887C32.0558 12.3837 32.5162 16.8433 31.0572 21.1119C28.2129 29.4327 19.1514 33.8759 10.8179 31.0359C7.21833 29.8092 4.34321 27.4243 2.46767 24.4401H2.46783C4.94892 23.2577 13.3942 19.1189 15.0583 18.145C16.4256 17.3494 18.4613 16.1767 18.4613 16.1767L19.3247 17.9339L20.6431 26.5932L21.6501 26.0127L22.3201 13.9178C24.3547 12.6475 26.1477 11.4116 28.0243 10.1182L28.0248 10.1177C28.7121 9.64411 29.4106 9.16259 30.1363 8.66887ZM29.3879 7.37277C29.3876 7.37277 29.3875 7.37261 29.3871 7.37261C28.5956 7.75352 27.8283 8.117 27.0735 8.47446V8.47461C25.0132 9.45065 23.0448 10.383 20.926 11.5071L10.1006 6.03896L9.09371 6.61936L15.9449 12.0891L17.0356 13.7115L17.0374 13.7143C17.0374 13.7143 15.0025 14.8882 13.6287 15.6727C11.952 16.6248 4.13977 21.8579 1.87369 23.4122C-0.107884 19.6694 -0.598962 15.1503 0.878716 10.8276C3.72305 2.5067 12.7843 -1.93652 21.1179 0.903372C24.6666 2.1128 27.511 4.44768 29.3879 7.37277Z" fill="#0E1422"/>
<path fill-rule="evenodd" clip-rule="evenodd" d="M143.091 12.4266V10.679H146.175V26.5993H143.002V24.7912C141.87 26.1078 140.277 26.9779 137.975 26.9779C133.443 26.9779 130.53 23.3707 130.53 18.6485C130.53 13.9593 133.443 10.3193 137.975 10.3193C139.99 10.3193 141.857 11.0781 143.091 12.4266ZM142.878 15.551C141.938 14.1629 140.35 13.3085 138.481 13.3085C135.675 13.3085 133.743 15.6808 133.743 18.6485C133.743 21.6162 135.604 24.0595 138.481 24.0595C140.403 24.0595 141.959 22.9659 142.878 21.5483V15.551Z" fill="#0E1422"/>
<path d="M124.141 6.5806C124.141 5.35723 125.145 4.36804 126.383 4.36804C127.583 4.36804 128.6 5.38321 128.6 6.5806C128.6 7.81712 127.609 8.8193 126.383 8.8193C125.145 8.8193 124.141 7.81712 124.141 6.5806Z" fill="#0E1422"/>
<path d="M124.721 10.679H128.019V26.5993H124.721V10.679Z" fill="#0E1422"/>
<path fill-rule="evenodd" clip-rule="evenodd" d="M118.276 4.77606H121.503V26.5993H118.329V24.7911C117.197 26.1078 115.604 26.978 113.302 26.978C108.77 26.978 105.857 23.3708 105.857 18.6486C105.857 13.9593 108.77 10.3193 113.302 10.3193C115.241 10.3193 117.043 11.0221 118.276 12.277V4.77606ZM118.205 15.5511C117.265 14.163 115.677 13.3086 113.808 13.3086C111.003 13.3086 109.07 15.6809 109.07 18.6486C109.07 21.6163 110.932 24.0596 113.808 24.0596C115.731 24.0596 117.286 22.966 118.205 21.5483V15.5511Z" fill="#0E1422"/>
<path fill-rule="evenodd" clip-rule="evenodd" d="M96.5661 27.0041C98.006 27.0008 99.313 26.7317 100.487 26.197C101.668 25.6589 102.705 24.8828 103.596 23.8687L101.626 21.7733L101.622 21.778C100.968 22.4719 100.232 23.0036 99.4123 23.4333C98.6001 23.8386 97.674 24.0426 96.6316 24.0426C94.1695 24.0426 92.0264 22.1901 91.7165 19.7516H104.115C104.118 19.7161 104.12 19.6807 104.123 19.6452C104.152 19.2652 104.166 18.886 104.166 18.5034C104.166 13.9566 100.899 10.2664 96.3783 10.2664C91.8244 10.2664 88.3926 13.8577 88.3926 18.6352C88.3926 23.5081 91.8195 26.9992 96.5661 27.0041ZM91.7954 17.0314H100.795C100.478 14.8171 98.6539 13.1656 96.3101 13.1656C95.1364 13.1656 94.0632 13.6733 93.2519 14.4286C92.4732 15.1535 91.9422 16.1007 91.7954 17.0314Z" fill="#0E1422"/>
<path fill-rule="evenodd" clip-rule="evenodd" d="M74.3955 25.0034V32.5043H71.1685V10.6811H74.3425V12.4891C75.4745 11.1726 77.0668 10.3024 79.3691 10.3024C83.9014 10.3024 86.8144 13.9096 86.8144 18.6316C86.8144 23.321 83.9014 26.961 79.3691 26.961C77.4302 26.961 75.6277 26.2582 74.3955 25.0034ZM74.4665 21.7291C75.406 23.1174 76.9945 23.9716 78.8627 23.9716C81.6686 23.9716 83.6015 21.5993 83.6015 18.6316C83.6015 15.6639 81.7396 13.2208 78.8627 13.2208C76.9405 13.2208 75.3852 14.3144 74.4665 15.732V21.7291Z" fill="#0E1422"/>
<path d="M59.7272 18.4146L54.1033 10.68H58.0843L61.8357 15.956L65.5871 10.68H69.5149L63.8664 18.4483L69.7765 26.5997H65.791L61.7935 20.9653L57.7958 26.5997H53.7925L59.7272 18.4146Z" fill="#0E1422"/>
<path d="M43.4782 17.2601H51.7606V14.1363H43.4782V8.46101H52.4776V5.33722H39.8744V26.5994H52.5426V23.4758H43.4782V17.2601Z" fill="#0E1422"/>
</g>
<defs>
<clipPath id="clip0_6404_917">
<rect width="146" height="32" fill="white"/>
</clipPath>
</defs>
</svg>
