<svg width="130" height="30" viewBox="0 0 130 30" fill="none" xmlns="http://www.w3.org/2000/svg">
<path d="M0 1.4H9.4C15.4 1.4 19.2 6.2 19.2 12.8C19.2 16.4 18 19.6 15.6 21.6C14 23 11.8 23.8 9 23.8H0V1.4ZM8.7 19.9C13 19.9 14.6 17.3 14.6 12.9C14.6 8.5 12.7 5.4 8.8 5.4H4.5V20H8.7V19.9ZM19.9 15.8C19.9 11 23.3 7.3 28.3 7.3C33.3 7.3 36.7 11 36.7 15.8C36.7 20.6 33.3 24.3 28.3 24.3C23.3 24.3 19.9 20.5 19.9 15.8ZM32.3 15.8C32.3 12.7 30.8 10.5 28.2 10.5C25.6 10.5 24.1 12.6 24.1 15.8C24.1 19 25.5 21 28.2 21C30.9 21 32.3 18.9 32.3 15.8ZM37.5 15.8C37.5 11 40.6 7.3 45.5 7.3C49.7 7.3 52.2 9.7 52.8 13.2H48.6C48.3 11.8 47.2 10.7 45.7 10.7C43.1 10.7 41.8 12.7 41.8 15.8C41.8 18.8 43 20.9 45.6 20.9C47.3 20.9 48.5 20 48.8 18.2H53C52.7 21.6 50.1 24.3 45.8 24.3C40.7 24.2 37.5 20.5 37.5 15.8ZM64.2 23.8V21.9H64.1C63 23.4 61.8 24.2 59.5 24.2C55.9 24.2 53.9 21.9 53.9 18.4V7.7H58.1V17.7C58.1 19.6 58.9 20.6 60.8 20.6C62.8 20.6 64 19.1 64 17V7.7H68.3V23.7H64.2V23.8ZM89 1.5H93.3V5.5H89V1.5ZM89 7.7H93.3V23.7H89V7.7ZM95 24.2H99.2C99.5 25.2 100.5 26 102.4 26C104.8 26 106 24.8 106 22.7V20.9H105.9C105 22 103.7 22.8 101.7 22.8C98.1 22.8 94.6 20 94.6 15.1C94.6 10.3 97.5 7.3 101.5 7.3C103.5 7.3 105 8.1 105.9 9.4H106V7.7H110.1V22.5C110.1 24.8 109.4 26.3 108.2 27.4C106.9 28.7 104.8 29.2 102.4 29.2C98.2 29.2 95.5 27.4 95 24.2ZM106.3 15C106.3 12.7 105 10.7 102.5 10.7C100.3 10.7 98.9 12.4 98.9 15.1C98.9 17.8 100.3 19.4 102.5 19.4C105.2 19.4 106.3 17.4 106.3 15ZM116.2 9.9C117.4 8.2 118.9 7.3 121 7.3C124.3 7.3 126.5 9.8 126.5 13.3V23.8H122.2V14C122.2 12.3 121.2 11.1 119.4 11.1C117.5 11.1 116.1 12.6 116.1 14.8V23.9H112V7.9H116.2V9.9ZM79.3 10.3C76 9.6 74.5 9 74.5 7.2C74.5 5.6 76.1 4.6 78.5 4.6C80.7 4.6 82.4 5.6 82.8 7.7H87.2C86.7 3.4 83.5 1 78.5 1C73.5 1 69.9 3.3 69.9 7.7C69.9 12.4 73.6 13.4 77.6 14.3C81 15.1 83.1 15.5 83.1 17.7C83.1 19.8 81.1 20.6 78.8 20.6C75.6 20.6 74.1 19.5 73.8 16.8H69.4C69.6 21.5 73 24.2 79.1 24.2C84.1 24.2 87.8 21.7 87.8 17.1C87.7 12.4 83.9 11.3 79.3 10.3Z" fill="#0E1422"/>
</svg>
