<svg width="156" height="24" viewBox="0 0 156 24" fill="none" xmlns="http://www.w3.org/2000/svg">
<path d="M37.44 14.0068L33.8111 23.9897H23.6339L30.5113 5.06824H27.0572L20.1798 23.9897H10.0026L18.72 0H32.3514L37.44 14.0068Z" fill="#0542FC"/>
<path d="M19.234 23.9898C19.1724 24 19.1004 24 19.0387 24H12.3053C12.2333 24 12.1717 24 12.11 23.9898H19.234Z" fill="#0542FC"/>
<path d="M15.2761 0L7.79227 20.5801H2.38497L0 14.0068L5.08862 0H15.2761Z" fill="#0542FC"/>
<path d="M45.0093 22.3198V7.48806H48.5976V9.37193C49.076 8.6742 49.704 8.12599 50.4814 7.72728C51.2589 7.32858 52.146 7.12923 53.1428 7.12923C54.2791 7.12923 55.2559 7.35848 56.0732 7.81699C56.8906 8.25557 57.5385 8.92339 58.0169 9.82047C58.5552 8.9832 59.2728 8.32534 60.1699 7.8469C61.0869 7.36845 62.0837 7.12923 63.1602 7.12923C65.054 7.12923 66.5192 7.70735 67.5559 8.86359C68.5925 9.99989 69.1108 11.6744 69.1108 13.8872V22.3198H65.5524V14.2461C65.5524 12.9104 65.2932 11.9037 64.7749 11.2259C64.2566 10.5282 63.4791 10.1793 62.4425 10.1793C61.386 10.1793 60.5287 10.568 59.8709 11.3455C59.213 12.123 58.8841 13.2294 58.8841 14.6647V22.3198H55.2958V14.2461C55.2958 12.9104 55.0266 11.9037 54.4884 11.2259C53.9701 10.5282 53.1827 10.1793 52.1261 10.1793C51.0895 10.1793 50.2422 10.568 49.5844 11.3455C48.9265 12.123 48.5976 13.2294 48.5976 14.6647V22.3198H45.0093ZM78.2435 22.6786C76.7683 22.6786 75.4327 22.3597 74.2366 21.7217C73.0604 21.0639 72.1234 20.1469 71.4257 18.9707C70.728 17.7945 70.3791 16.4389 70.3791 14.9039C70.3791 13.349 70.728 11.9934 71.4257 10.8372C72.1234 9.66099 73.0703 8.75394 74.2665 8.11602C75.4626 7.45816 76.7882 7.12923 78.2435 7.12923C79.7386 7.12923 81.0743 7.45816 82.2505 8.11602C83.4266 8.75394 84.3636 9.66099 85.0613 10.8372C85.7591 11.9934 86.1079 13.349 86.1079 14.9039C86.1079 16.4389 85.7591 17.7945 85.0613 18.9707C84.3636 20.1469 83.4167 21.0639 82.2206 21.7217C81.0444 22.3597 79.7187 22.6786 78.2435 22.6786ZM78.2435 19.5687C79.001 19.5687 79.6888 19.3993 80.3068 19.0604C80.9447 18.7016 81.4531 18.1833 81.8318 17.5055C82.2106 16.8077 82.4 15.9406 82.4 14.9039C82.4 13.8673 82.2106 13.0101 81.8318 12.3323C81.4531 11.6346 80.9447 11.1163 80.3068 10.7774C79.6888 10.4185 79.011 10.2391 78.2734 10.2391C77.5159 10.2391 76.8181 10.4185 76.1802 10.7774C75.5423 11.1163 75.034 11.6346 74.6552 12.3323C74.2764 13.0101 74.087 13.8673 74.087 14.9039C74.087 15.9406 74.2764 16.8077 74.6552 17.5055C75.034 18.1833 75.5323 18.7016 76.1503 19.0604C76.7882 19.3993 77.486 19.5687 78.2435 19.5687ZM87.3092 22.3198V7.48806H90.8975V9.79057C91.3959 8.97323 92.0637 8.32534 92.901 7.8469C93.7582 7.36845 94.735 7.12923 95.8314 7.12923C97.6655 7.12923 99.0908 7.70735 100.108 8.86359C101.124 9.99989 101.633 11.6744 101.633 13.8872V22.3198H98.0442V14.2461C98.0442 12.9104 97.7651 11.9037 97.2069 11.2259C96.6687 10.5282 95.8414 10.1793 94.725 10.1793C93.6286 10.1793 92.7116 10.568 91.974 11.3455C91.2563 12.123 90.8975 13.2294 90.8975 14.6647V22.3198H87.3092ZM103.467 22.3198V7.48806H107.055V22.3198H103.467ZM103.467 4.94633V1.2683H107.085V4.94633H103.467ZM113.631 22.3198L108.159 7.48806H111.897L115.814 18.9109L119.701 7.48806H123.439L117.937 22.3198H113.631ZM130.396 22.6786C128.901 22.6786 127.575 22.3597 126.419 21.7217C125.283 21.0639 124.385 20.1568 123.728 19.0006C123.09 17.8444 122.771 16.5087 122.771 14.9936C122.771 13.4586 123.09 12.103 123.728 10.9269C124.366 9.73076 125.263 8.80378 126.419 8.14592C127.575 7.46813 128.911 7.12923 130.426 7.12923C131.881 7.12923 133.157 7.44819 134.253 8.08612C135.37 8.72404 136.227 9.59122 136.825 10.6876C137.443 11.7641 137.752 12.9802 137.752 14.3358C137.752 14.5351 137.752 14.7544 137.752 14.9936C137.752 15.2329 137.732 15.492 137.692 15.7711H125.372V13.4387H134.134C134.074 12.4021 133.695 11.5847 132.997 10.9867C132.3 10.3687 131.442 10.0597 130.426 10.0597C129.688 10.0597 129 10.2291 128.363 10.568C127.745 10.887 127.246 11.3754 126.867 12.0333C126.489 12.6712 126.299 13.4885 126.299 14.4853V15.3525C126.299 16.2695 126.479 17.0569 126.837 17.7148C127.216 18.3726 127.715 18.871 128.333 19.2099C128.951 19.5488 129.638 19.7183 130.396 19.7183C131.213 19.7183 131.901 19.5388 132.459 19.18C133.017 18.8012 133.426 18.3029 133.685 17.6849H137.333C137.074 18.6418 136.616 19.499 135.958 20.2565C135.32 20.9941 134.532 21.5822 133.595 22.0208C132.659 22.4593 131.592 22.6786 130.396 22.6786ZM146.383 22.6786C144.908 22.6786 143.572 22.3597 142.376 21.7217C141.2 21.0639 140.263 20.1469 139.565 18.9707C138.868 17.7945 138.519 16.4389 138.519 14.9039C138.519 13.349 138.868 11.9934 139.565 10.8372C140.263 9.66099 141.21 8.75394 142.406 8.11602C143.602 7.45816 144.928 7.12923 146.383 7.12923C147.878 7.12923 149.214 7.45816 150.39 8.11602C151.566 8.75394 152.503 9.66099 153.201 10.8372C153.899 11.9934 154.247 13.349 154.247 14.9039C154.247 16.4389 153.899 17.7945 153.201 18.9707C152.503 20.1469 151.556 21.0639 150.36 21.7217C149.184 22.3597 147.858 22.6786 146.383 22.6786ZM146.383 19.5687C147.141 19.5687 147.828 19.3993 148.446 19.0604C149.084 18.7016 149.593 18.1833 149.971 17.5055C150.35 16.8077 150.54 15.9406 150.54 14.9039C150.54 13.8673 150.35 13.0101 149.971 12.3323C149.593 11.6346 149.084 11.1163 148.446 10.7774C147.828 10.4185 147.151 10.2391 146.413 10.2391C145.655 10.2391 144.958 10.4185 144.32 10.7774C143.682 11.1163 143.174 11.6346 142.795 12.3323C142.416 13.0101 142.227 13.8673 142.227 14.9039C142.227 15.9406 142.416 16.8077 142.795 17.5055C143.174 18.1833 143.672 18.7016 144.29 19.0604C144.928 19.3993 145.626 19.5687 146.383 19.5687Z" fill="#111729"/>
</svg>
