<svg width="121" height="83" viewBox="0 0 121 83" fill="none" xmlns="http://www.w3.org/2000/svg">
<path fill-rule="evenodd" clip-rule="evenodd" d="M0.199829 34.841L60.1998 0.199951V13.5234L0.199829 48.1644V34.841Z" fill="#CDD5E0" stroke="#CDD5E0" stroke-width="0.399704" stroke-linejoin="round"/>
<path fill-rule="evenodd" clip-rule="evenodd" d="M60.1996 0.199951L120.2 34.841V48.1644L60.1996 13.5234V0.199951Z" fill="#CDD5E0" stroke="#CDD5E0" stroke-width="0.399704" stroke-linejoin="round"/>
<path fill-rule="evenodd" clip-rule="evenodd" d="M120.2 34.8411L60.1996 69.4821V82.8055L120.2 48.1645V34.8411Z" fill="#CDD5E0" stroke="#CDD5E0" stroke-width="0.399704" stroke-linejoin="round"/>
<path fill-rule="evenodd" clip-rule="evenodd" d="M60.1998 69.4821L0.199829 34.8411V48.1645L60.1998 82.8055V69.4821Z" fill="#CDD5E0" stroke="#CDD5E0" stroke-width="0.399704" stroke-linejoin="round"/>
<rect x="0.346154" width="68.8823" height="68.8823" transform="matrix(0.866025 -0.5 0.866025 0.5 0.246205 35.0141)" fill="white" stroke="#CDD5E0" stroke-width="0.399704"/>
<g clip-path="url(#clip0_6404_1155)">
<mask id="mask0_6404_1155" style="mask-type:luminance" maskUnits="userSpaceOnUse" x="29" y="17" width="62" height="36">
<path d="M29.2744 38.2339L65.5281 17.3028L90.9013 31.952L54.6476 52.8831L29.2744 38.2339Z" fill="white"/>
</mask>
<g mask="url(#mask0_6404_1155)">
<path fill-rule="evenodd" clip-rule="evenodd" d="M47.1249 31.1244C47.076 29.7458 47.9483 28.3693 49.7489 27.3297C52.1425 25.9477 55.5658 25.5125 58.6594 26.0147C59.2097 25.1837 60.0582 24.4293 61.1492 23.801C65.4665 21.3084 72.4972 21.326 76.8526 23.8406C81.2081 26.3552 81.2387 30.4144 76.9214 32.9071C76.3942 33.2114 75.8263 33.4781 75.2278 33.7076C75.9952 35.2813 75.309 37.0404 73.1671 38.2771C72.3019 38.7779 71.2499 39.158 70.0915 39.3883C71.4344 41.3097 70.7583 43.5908 68.0629 45.147C65.2552 46.768 61.086 47.1241 57.6769 46.2157C57.3542 46.5017 56.9806 46.7675 56.5623 47.0087C53.2196 48.9387 47.772 48.9223 44.3946 46.9724C42.131 45.6654 41.372 43.8217 42.1239 42.1667C40.858 41.8785 39.7085 41.4426 38.7474 40.8864C34.8629 38.6437 34.867 35.005 38.7567 32.7593C41.0403 31.4408 44.1555 30.8958 47.1249 31.1244Z" fill="#00A1E0"/>
</g>
<path fill-rule="evenodd" clip-rule="evenodd" d="M47.6806 42.8052C47.7173 42.8527 47.7606 42.842 47.7784 42.8439C47.8958 42.833 48.0007 42.8137 48.1106 42.7965C48.676 42.6961 49.0829 42.5275 49.448 42.3167C50.1919 41.8872 50.2585 41.3922 49.6216 41.0245L49.6091 41.0172C49.0202 40.6772 48.2846 40.8549 47.6413 41.0479L47.5569 41.0729C47.0686 41.2166 46.6469 41.3405 46.404 41.2003L46.3916 41.1932C46.1836 41.0731 46.2168 40.8775 46.505 40.7111C46.8254 40.5261 47.3116 40.3683 47.6917 40.305C47.6917 40.305 47.8105 40.2902 47.7671 40.2349C47.7437 40.2049 47.5341 39.9409 47.5112 39.9125C47.4863 39.8818 47.432 39.8791 47.3914 39.885C46.9413 39.9481 46.4392 40.1042 46.0393 40.335L45.9654 40.378C45.2846 40.7711 45.2209 41.2832 45.81 41.6234L45.8227 41.6307C46.4436 41.9892 47.1698 41.8029 47.8014 41.6003L47.9047 41.5689C48.3723 41.4258 48.7761 41.3022 49.0278 41.4475L49.0403 41.4547C49.2708 41.5878 49.2412 41.8025 48.9179 41.9892C48.7925 42.0616 48.3901 42.2915 47.6841 42.3832C47.6012 42.3959 47.5494 42.4004 47.4844 42.4095C47.4502 42.4143 47.3735 42.4316 47.4202 42.4853L47.6806 42.8052ZM58.5699 36.5183C58.6066 36.5658 58.6499 36.5551 58.668 36.5568C58.7851 36.5461 58.8901 36.5267 58.9999 36.5096C59.5654 36.4091 59.9723 36.2405 60.3373 36.0298C61.0811 35.6003 61.1479 35.1052 60.511 34.7375L60.4985 34.7302C59.9096 34.3902 59.1741 34.5678 58.5307 34.7609L58.4463 34.7859C57.958 34.9296 57.5361 35.0536 57.2933 34.9134L57.2809 34.9062C57.0729 34.7862 57.1062 34.5905 57.3945 34.424C57.7148 34.2391 58.2009 34.0814 58.581 34.0181C58.581 34.0181 58.6998 34.0033 58.6565 33.9479C58.6329 33.9179 58.4235 33.6539 58.4004 33.6255C58.3757 33.5948 58.3213 33.5922 58.2808 33.598C57.8306 33.6612 57.3286 33.8172 56.9287 34.048L56.8547 34.0911C56.174 34.4841 56.1103 34.9962 56.6994 35.3364L56.7121 35.3437C57.333 35.7022 58.0591 35.516 58.6908 35.3133L58.794 35.282C59.2617 35.1388 59.6655 35.0152 59.9172 35.1605L59.9297 35.1677C60.1602 35.3008 60.1305 35.5156 59.8074 35.7022C59.6818 35.7747 59.2794 36.0045 58.5735 36.0962C58.4906 36.1089 58.4389 36.1144 58.3737 36.1225C58.3517 36.1254 58.2644 36.1475 58.3096 36.1983L58.5699 36.5183ZM64.7561 31.5061C65.1159 31.7138 65.3328 31.9165 65.4011 32.1083C65.4685 32.2986 65.3673 32.4686 65.0914 32.6279C64.8154 32.7872 64.5222 32.8452 64.1948 32.8051C63.8643 32.7645 63.514 32.6386 63.1543 32.4309C62.7948 32.2234 62.5777 32.0218 62.5097 31.8322C62.4421 31.6442 62.5435 31.4755 62.8194 31.3162C63.0954 31.1569 63.3887 31.0979 63.7164 31.1356C64.0467 31.1737 64.3967 31.2985 64.7561 31.5061ZM64.7102 30.7623C64.4426 30.6785 64.166 30.6285 63.8881 30.614C63.6095 30.5995 63.3271 30.6215 63.0486 30.6801C62.7703 30.7385 62.5015 30.8418 62.2496 30.9872C61.9976 31.1327 61.8186 31.2879 61.7173 31.4487C61.6161 31.6093 61.5778 31.7725 61.6033 31.9335C61.6287 32.094 61.7148 32.2537 61.86 32.4079C62.0042 32.5611 62.1979 32.7085 62.4357 32.8458C62.6737 32.9832 62.9291 33.0951 63.1942 33.1782C63.4611 33.2619 63.7376 33.3119 64.0163 33.3265C64.2951 33.3412 64.5771 33.3182 64.8529 33.2587C65.1292 33.1989 65.397 33.095 65.6487 32.9497C65.9005 32.8043 66.0801 32.6499 66.1836 32.4904C66.287 32.331 66.3264 32.1684 66.3013 32.0072C66.2762 31.8468 66.1895 31.687 66.0444 31.5326C65.9 31.3794 65.7062 31.232 65.4685 31.0948C65.231 30.9576 64.9756 30.8457 64.7102 30.7623ZM71.5186 28.8059C71.4379 28.7829 71.4017 28.83 71.4017 28.83C71.3461 28.902 71.2821 28.9759 71.1955 29.0443C71.1084 29.1134 71.002 29.1842 70.8796 29.2549C70.5794 29.4282 70.2509 29.5146 69.9035 29.5112C69.5552 29.5081 69.1733 29.3988 68.7879 29.1751C68.4377 28.9718 68.2581 28.7699 68.2088 28.5655C68.1595 28.3625 68.2874 28.1699 68.5942 27.9928C68.8504 27.8449 69.0756 27.7492 69.3446 27.668C69.3446 27.668 69.4144 27.6522 69.3736 27.6017C69.2772 27.4831 69.21 27.3979 69.1023 27.2685C69.0715 27.2317 69.011 27.2435 68.9905 27.2488C68.8785 27.2771 68.6369 27.3571 68.4717 27.4274C68.317 27.493 68.1495 27.5774 67.9746 27.6784C67.7138 27.8289 67.526 27.9889 67.4156 28.1548C67.3056 28.3203 67.2593 28.4879 67.2777 28.6525C67.2964 28.8173 67.3765 28.9808 67.5153 29.1385C67.6529 29.2956 67.8438 29.4451 68.0823 29.5828C68.5973 29.8801 69.1523 30.0401 69.7313 30.0579C70.3122 30.0757 70.88 29.9272 71.4184 29.6164C71.7364 29.4328 71.9984 29.2072 72.1409 29.0182C72.1409 29.0182 72.1641 28.9799 72.0924 28.9609L71.5186 28.8059ZM71.2172 27.3775C71.0469 27.2449 70.9356 27.1173 70.8912 26.9931C70.8235 26.8052 70.9113 26.6295 71.1872 26.4702C71.4633 26.3108 71.7536 26.2684 72.0812 26.3062C72.2977 26.3312 72.5087 26.4092 72.7165 26.5122L71.2172 27.3775ZM72.8683 25.917C72.6163 25.8326 72.285 25.7918 72.1074 25.7882C71.8264 25.7821 71.5919 25.7996 71.404 25.843C71.1328 25.9062 70.8865 26.0004 70.68 26.1199C70.4177 26.2714 70.2237 26.4346 70.121 26.5985C70.0182 26.7628 69.9797 26.9284 70.0065 27.0911C70.0329 27.2539 70.1206 27.4151 70.2675 27.5705C70.4131 27.7254 70.6078 27.8735 70.846 28.011C71.0882 28.1509 71.3462 28.2627 71.6124 28.3435C71.881 28.4249 72.1632 28.4695 72.4511 28.476C72.7394 28.4829 73.0351 28.4482 73.3297 28.3729C73.623 28.2982 73.9224 28.1744 74.2161 28.0038C74.8213 27.652 75.0053 27.3895 75.0644 27.2712C75.0746 27.2502 75.0741 27.2245 74.9818 27.2029L74.4595 27.0602C74.381 27.0392 74.3437 27.0847 74.3437 27.0847C74.2492 27.2042 74.1363 27.3852 73.6364 27.6726C73.3099 27.8605 72.9722 27.9442 72.67 27.945C72.3609 27.9458 72.0587 27.8593 71.7266 27.6825L73.8295 26.4702C73.8295 26.4702 73.8844 26.4379 73.8361 26.4033C73.816 26.3891 73.4765 26.1125 72.8683 25.917ZM54.3845 37.0959C54.2142 36.9632 54.103 36.8356 54.0585 36.7115C53.9909 36.5235 54.0784 36.3479 54.3546 36.1885C54.6307 36.0291 54.921 35.9867 55.2486 36.0245C55.465 36.0495 55.6759 36.1276 55.8838 36.2305L54.3845 37.0959ZM56.0355 35.6354C55.7837 35.5509 55.4522 35.5102 55.2748 35.5065C54.9938 35.5004 54.7594 35.5179 54.5714 35.5613C54.3002 35.6245 54.054 35.7187 53.8474 35.8382C53.5851 35.9897 53.3911 36.1529 53.2884 36.3169C53.1856 36.4811 53.1471 36.6467 53.1736 36.8095C53.2003 36.9722 53.288 37.1334 53.4347 37.289C53.5804 37.4438 53.7752 37.5918 54.0134 37.7293C54.2556 37.8692 54.5133 37.9812 54.7799 38.0617C55.0484 38.1432 55.3307 38.1877 55.6184 38.1944C55.9068 38.2012 56.2023 38.1666 56.4969 38.0913C56.7904 38.0165 57.0895 37.8929 57.3835 37.7221C57.9886 37.3704 58.1727 37.1078 58.2318 36.9895C58.2419 36.9686 58.2415 36.9429 58.149 36.9213L57.6269 36.7785C57.5483 36.7575 57.511 36.8031 57.511 36.8031C57.4166 36.9225 57.3037 37.1035 56.8036 37.391C56.4773 37.5788 56.1394 37.6626 55.8373 37.6634C55.5283 37.6641 55.226 37.5777 54.8938 37.4009L56.9969 36.1885C56.9969 36.1885 57.0518 36.1562 57.0035 36.1216C56.9834 36.1074 56.6439 35.8308 56.0355 35.6354ZM51.2179 40.5133C51.0696 40.5229 51.042 40.5202 50.9719 40.5113C50.8659 40.4982 50.7529 40.4576 50.6355 40.3899C50.451 40.2833 50.3793 40.1712 50.4164 40.0467C50.4153 40.0476 50.4401 39.8512 50.874 39.6071C51.0685 39.4987 51.2754 39.398 51.4933 39.3057L52.4486 39.8572L52.4488 39.8571C52.4488 39.8571 52.2391 40.0445 51.9565 40.2285C51.5548 40.4902 51.2162 40.5139 51.2179 40.5133ZM50.5772 39.1777C50.4856 39.2233 50.3721 39.2853 50.2397 39.3618C50.0597 39.4657 49.9079 39.5792 49.7884 39.6989C49.6685 39.8192 49.5894 39.944 49.5531 40.0697C49.5169 40.1953 49.5311 40.324 49.5948 40.4459C49.659 40.569 49.784 40.685 49.9667 40.7905C50.1531 40.8981 50.3469 40.9726 50.5428 41.0119C50.7361 41.0512 50.9434 41.0622 51.1459 41.0436C51.3478 41.0252 51.5543 40.978 51.7596 40.9035C51.9624 40.8299 52.1685 40.7329 52.3729 40.6149C52.5887 40.4903 52.7853 40.3559 52.9582 40.2156C53.1048 40.0957 53.247 39.974 53.3847 39.8506C53.4386 39.8009 53.4947 39.744 53.4947 39.744C53.5335 39.7064 53.474 39.6766 53.474 39.6766L51.5507 38.5676C51.1292 38.3242 50.7044 38.2089 50.2888 38.2248C49.8753 38.2406 49.4531 38.3718 49.033 38.6143C48.8752 38.7054 48.6431 38.864 48.5215 38.9695C48.5215 38.9695 48.1516 39.2858 48.1107 39.4803C48.1107 39.4803 48.0947 39.5191 48.1753 39.5395L48.7239 39.6843C48.7942 39.7035 48.827 39.6642 48.827 39.6642C48.827 39.6642 48.8366 39.6514 48.8442 39.6342C49.0286 39.2739 49.5466 38.9824 49.5466 38.9824C49.7736 38.8513 49.9945 38.7769 50.202 38.7609C50.4048 38.7455 50.5956 38.7885 50.8757 38.9502L50.9646 39.0015C50.7582 39.0905 50.5772 39.1777 50.5772 39.1777ZM66.4465 28.7652C66.4425 28.7594 66.4365 28.7542 66.4289 28.7497C66.4213 28.7453 66.4122 28.7418 66.4022 28.7394C66.3922 28.737 66.3815 28.7358 66.3706 28.7359C66.3598 28.736 66.3491 28.7373 66.3392 28.7398C66.2898 28.7526 66.0734 28.834 65.9271 28.9086C65.6464 29.0516 65.5445 29.1619 65.4723 29.2719C65.4007 29.381 65.3514 29.5192 65.3793 29.6282L65.1227 29.4803C65.0875 29.46 65.0342 29.458 64.9988 29.4785L64.46 29.7895C64.425 29.8097 64.4281 29.8407 64.4633 29.861L67.5986 31.6712C67.6155 31.6809 67.6385 31.6864 67.6624 31.6864C67.6863 31.6864 67.7093 31.6809 67.7262 31.6712L68.2785 31.3523C68.2953 31.3425 68.3048 31.3293 68.3048 31.3155C68.3047 31.3017 68.2952 31.2885 68.2783 31.2787L66.7122 30.3745C66.5018 30.253 66.3154 30.1186 66.2298 30.0159C66.145 29.9142 66.103 29.8185 66.105 29.731C66.1056 29.6474 66.141 29.5651 66.2084 29.491C66.2738 29.4229 66.3553 29.3604 66.4506 29.3053C66.5605 29.2419 66.7098 29.1883 66.7098 29.1883C66.7548 29.1675 66.7525 29.1402 66.7297 29.1112C66.6698 29.0349 66.4842 28.8096 66.4465 28.7652Z" fill="#FFFFFE"/>
<path fill-rule="evenodd" clip-rule="evenodd" d="M59.8103 30.919C59.7215 30.9465 59.6357 30.977 59.5533 31.0105C59.4432 31.0559 59.3402 31.1068 59.2455 31.1626C58.8654 31.3821 58.6732 31.6171 58.6749 31.861C58.6765 32.1032 58.855 32.3704 59.2057 32.6552L59.3224 32.7522L58.8453 33.0277C58.8453 33.0277 58.7847 33.0599 58.836 33.1037L59.1946 33.4012C59.231 33.4285 59.2751 33.4332 59.3308 33.4008L59.7953 33.1326L61.9545 34.9234C62.1294 35.067 62.2614 35.192 62.3467 35.2952C62.4309 35.3971 62.4835 35.4795 62.499 35.5524C62.5139 35.623 62.5135 35.6815 62.4552 35.7492C62.4071 35.8052 62.3348 35.8598 62.2434 35.9125C62.1925 35.9419 62.1163 35.9761 62.0564 35.9992C61.9966 36.0223 61.9594 36.0309 61.9062 36.0434C61.9062 36.0434 61.831 36.0629 61.8641 36.1068C61.8913 36.1426 62.1079 36.4106 62.1354 36.4434C62.162 36.476 62.2157 36.4829 62.2516 36.4731C62.3355 36.4502 62.3956 36.4318 62.4997 36.3946C62.6442 36.343 62.7445 36.2871 62.8369 36.2338C63.0303 36.1221 63.1794 36.0046 63.2728 35.8898C63.3667 35.7742 63.4022 35.6468 63.3901 35.509C63.3773 35.3602 63.3127 35.234 63.1931 35.0799C63.0746 34.9273 62.899 34.7542 62.6717 34.5656L60.466 32.7454L61.1582 32.3457C61.1582 32.3457 61.2187 32.3132 61.1676 32.2697L60.8089 31.9722C60.7725 31.9449 60.7286 31.9401 60.6726 31.9727L60.0007 32.3606C59.9888 32.3499 59.783 32.1959 59.6376 32.0229C59.5756 31.949 59.5609 31.869 59.5608 31.8083C59.5597 31.7511 59.5825 31.6945 59.6272 31.6435C59.6777 31.5883 59.7428 31.538 59.8203 31.4945C59.8836 31.4579 59.9533 31.4265 60.0104 31.4049C60.0894 31.3752 60.1221 31.3649 60.1442 31.3579C60.2336 31.3305 60.2225 31.3135 60.2028 31.2865L59.9222 30.939C59.8913 30.9021 59.8311 30.9138 59.8103 30.919ZM54.9663 38.9645C55.0015 38.9848 55.0051 39.0158 54.9699 39.0361L54.4126 39.3579C54.3773 39.3782 54.3236 39.3762 54.2884 39.3559L49.8027 36.766C49.7676 36.7458 49.7643 36.7149 49.7996 36.6945L50.3569 36.3728C50.3921 36.3525 50.4455 36.3544 50.4806 36.3746L54.9663 38.9645Z" fill="#FFFFFE"/>
</g>
<defs>
<clipPath id="clip0_6404_1155">
<rect width="42" height="29.3846" fill="white" transform="matrix(0.866025 -0.5 0.866025 0.5 29.1998 38.2)"/>
</clipPath>
</defs>
</svg>
